<ttFont>
<head>
    <!-- Most of this table will be recalculated by the compiler -->
    <tableVersion value="1.0"/>
    <fontRevision value="2.0"/>
    <checkSumAdjustment value="0x448e39f0"/>
    <magicNumber value="0x5f0f3cf5"/>
    <flags value="00000000 00000011"/>
    <unitsPerEm value="2000"/>
    <created value="Fri Dec 23 10:14:22 2016"/>
    <modified value="Sat Nov 24 22:18:37 2018"/>
    <xMin value="-351"/>
    <yMin value="-508"/>
    <xMax value="2869"/>
    <yMax value="2291"/>
    <macStyle value="00000000 00000000"/>
    <lowestRecPPEM value="6"/>
    <fontDirectionHint value="2"/>
    <indexToLocFormat value="0"/>
    <glyphDataFormat value="0"/>
  </head>
          <CharString index="0">
            rmoveto
            -50 callsubr
            return
          </CharString>
          <CharString index="1">
            -380 193 -184 324 hvcurveto
            return
          </CharString>
          <CharString index="2">
            -91 callsubr
            endchar
          </CharString>
          <CharString index="3">
            378 -189 191 -329 -329 -188 -185 -387 return
          </CharString>
          <CharString index="4">
            414 -243 198 -360 -77 callgsubr
            return
          </CharString>
          <CharString index="5">
            1590 rmoveto
            322 hlineto
            return
          </CharString>
          <CharString index="6">
            1226 rmoveto
            321 hlineto
            return
          </CharString>
          <CharString index="7">
            131 callsubr
            endchar
          </CharString>
          <CharString index="8">
            150 callsubr
            endchar
          </CharString>
          <CharString index="9">
            rmoveto
            103 96 10 25 113 244 callsubr
            return
          </CharString>
          <CharString index="10">
            1300 rmoveto
            322 hlineto
            return
          </CharString>
          <CharString index="11">
            117 callsubr
            endchar
          </CharString>
          <CharString index="12">
            rmoveto
            25 callsubr
            78 callsubr
            endchar
          </CharString>
          <CharString index="13">
            rmoveto
            -28 callsubr
            -38 callsubr
            -40 callgsubr
            endchar
          </CharString>
          <CharString index="14">
            rmoveto
            24 callsubr
            359 0 36 callsubr
            252 callsubr
            endchar
          </CharString>
          <CharString index="15">
            185 callsubr
            endchar
          </CharString>
          <CharString index="16">
            -78 -57 -107 -107 78 -57 141 hvcurveto
            return
          </CharString>
          <CharString index="17">
            rmoveto
            112 callsubr
            endchar
          </CharString>
          <CharString index="18">
            rmoveto
            113 callsubr
            endchar
          </CharString>
          <CharString index="19">
            -506 hmoveto
            125 67 return
          </CharString>
          <CharString index="20">
            1097 -360 -739 hlineto
            104 callgsubr
            return
          </CharString>
          <CharString index="21">
            869 -359 -907 vlineto
            196 callsubr
            return
          </CharString>
          <CharString index="22">
            223 310 rlineto
            -375 hlineto
            return
          </CharString>
          <CharString index="23">
            -35 callgsubr
            endchar
          </CharString>
          <CharString index="24">
            rmoveto
            112 96 43 86 75 hvcurveto
            15 hlineto
            25 -110 rlineto
            297 return
          </CharString>
          <CharString index="25">
            -435 195 -196 417 vhcurveto
            endchar
          </CharString>
          <CharString index="26">
            1226 rmoveto
            247 hlineto
            return
          </CharString>
          <CharString index="27">
            226 310 -255 0 return
          </CharString>
          <CharString index="28">
            682 -356 -717 vlineto
            56 callgsubr
            -351 172 -173 374 vhcurveto
            endchar
          </CharString>
          <CharString index="29">
            123 160 122 -160 255 0 -226 272 rlineto
            -303 hlineto
            return
          </CharString>
          <CharString index="30">
            rmoveto
            92 61 22 52 53 hvcurveto
            210 vlineto
            -48 -62 -56 -24 -83 return
          </CharString>
          <CharString index="31">
            265 390 rlineto
            -371 hlineto
            return
          </CharString>
          <CharString index="32">
            -486 hmoveto
            120 71 68 return
          </CharString>
          <CharString index="33">
            222 310 rlineto
            -374 hlineto
            return
          </CharString>
          <CharString index="34">
            -125 42 callsubr
            return
          </CharString>
          <CharString index="35">
            rmoveto
            140 79 57 107 107 -79 57 -140 -141 -93 callgsubr
          </CharString>
          <CharString index="36">
            125 67 -63 callsubr
            return
          </CharString>
          <CharString index="37">
            1590 rmoveto
            255 hlineto
            return
          </CharString>
          <CharString index="38">
            rmoveto
            -91 callgsubr
            return
          </CharString>
          <CharString index="39">
            rmoveto
            54 callsubr
            return
          </CharString>
          <CharString index="40">
            123 181 122 -181 255 0 -75 callgsubr
            return
          </CharString>
          <CharString index="41">
            122 181 123 -181 255 0 -75 callgsubr
            return
          </CharString>
          <CharString index="42">
            -120 -71 -68 39 callsubr
            return
          </CharString>
          <CharString index="43">
            rmoveto
            324 194 184 383 return
          </CharString>
          <CharString index="44">
            41 callsubr
            -68 -59 -105 -104 68 -60 125 hvcurveto
            return
          </CharString>
          <CharString index="45">
            -129 -93 -90 -125 -125 93 -90 129 hvcurveto
            return
          </CharString>
          <CharString index="46">
            rmoveto
            141 79 57 107 107 -79 57 -141 return
          </CharString>
          <CharString index="47">
            -1637 -64 callsubr
            return
          </CharString>
          <CharString index="48">
            -128 310 rlineto
            -286 hlineto
            return
          </CharString>
          <CharString index="49">
            1300 rmoveto
            255 hlineto
            return
          </CharString>
          <CharString index="50">
            -122 -180 -123 180 rlineto
            -255 hlineto
            return
          </CharString>
          <CharString index="51">
            -215 390 rlineto
            -371 hlineto
            return
          </CharString>
          <CharString index="52">
            1972 rmoveto
            358 hlineto
            return
          </CharString>
          <CharString index="53">
            1590 rmoveto
            303 hlineto
            return
          </CharString>
          <CharString index="54">
            rmoveto
            -90 callgsubr
            return
          </CharString>
          <CharString index="55">
            rmoveto
            254 hlineto
            123 return
          </CharString>
          <CharString index="56">
            -121 -71 -68 -113 -114 71 -68 121 hvcurveto
            return
          </CharString>
          <CharString index="57">
            141 78 57 107 107 -78 57 -141 -141 return
          </CharString>
          <CharString index="58">
            343 901 hlineto
            539 -901 rlineto
            return
          </CharString>
          <CharString index="59">
            rmoveto
            366 1480 -366 hlineto
            endchar
          </CharString>
          <CharString index="60">
            rmoveto
            364 1190 -364 hlineto
            endchar
          </CharString>
          <CharString index="61">
            -117 -92 169 callsubr
            return
          </CharString>
          <CharString index="62">
            114 113 -71 68 -120 return
          </CharString>
          <CharString index="63">
            1598 rmoveto
            246 hlineto
            return
          </CharString>
          <CharString index="64">
            1590 rmoveto
            177 hlineto
            return
          </CharString>
          <CharString index="65">
            rmoveto
            401 197 171 409 hvcurveto
            931 vlineto
            42 -119 -158 22 -137 hhcurveto
            -417 -1 -190 -211 -375 vvcurveto
            -373 192 -163 203 111 86 46 80 53 vhcurveto
            17 -64 hlineto
            -171 -85 -65 -185 -97 -108 14 29 -109 vhcurveto
            -282 vlineto
            -28 112 126 -11 107 hhcurveto
            121 746 rmoveto
            -115 -66 56 216 215 77 70 134 31 32 -4 -4 25 hvcurveto
            -511 vlineto
            -26 -32 -44 -12 -42 hhcurveto
            endchar
          </CharString>
          <CharString index="66">
            475 -21 rmoveto
            120 87 54 83 52 hvcurveto
            16 hlineto
            22 -116 rlineto
            303 return
          </CharString>
          <CharString index="67">
            366 1480 -343 -901 hlineto
            -539 901 rlineto
            -366 hlineto
            return
          </CharString>
          <CharString index="68">
            -120 -71 -68 -112 -111 71 -68 120 hvcurveto
            endchar
          </CharString>
          <CharString index="69">
            523 -270 237 -405 -78 callgsubr
            return
          </CharString>
          <CharString index="70">
            rmoveto
            120 71 68 111 112 -71 68 -120 return
          </CharString>
          <CharString index="71">
            -123 -180 -122 180 rlineto
            -255 hlineto
            return
          </CharString>
          <CharString index="72">
            205 hlineto
            103 136 68 183 169 vvcurveto
            return
          </CharString>
          <CharString index="73">
            rmoveto
            228 128 -11 callgsubr
            -14 return
          </CharString>
          <CharString index="74">
            hlineto
            -162 23 120 -104 225 hhcurveto
            return
          </CharString>
          <CharString index="75">
            138 93 88 133 133 -90 return
          </CharString>
          <CharString index="76">
            61 22 52 54 hvcurveto
            210 vlineto
            -48 return
          </CharString>
          <CharString index="77">
            -93 79 -138 hhcurveto
            -92 -61 -24 -51 return
          </CharString>
          <CharString index="78">
            -1626 -68 callsubr
            return
          </CharString>
          <CharString index="79">
            404 271 237 523 return
          </CharString>
          <CharString index="80">
            144 310 rlineto
            -286 hlineto
            return
          </CharString>
          <CharString index="81">
            rmoveto
            713 221 -713 hlineto
            return
          </CharString>
          <CharString index="82">
            rmoveto
            99 114 11 16 104 hvcurveto
            568 -334 -312 vlineto
            -7 -8 0 -7 hhcurveto
            -209 -109 96 226 239 112 94 288 83 80 -10 -16 73 hvcurveto
            283 vlineto
            19 -79 -92 9 -104 hhcurveto
            -488 -251 -221 -392 -409 245 -201 490 hvcurveto
            endchar
          </CharString>
          <CharString index="83">
            rmoveto
            94 105 14 23 71 hvcurveto
            283 vlineto
            -21 -72 -83 -14 -69 hhcurveto
            -233 -103 86 239 235 107 92 234 77 74 -10 -12 68 hvcurveto
            283 vlineto
            16 -76 -90 8 -87 hhcurveto
            -438 -250 -213 -401 return
          </CharString>
          <CharString index="84">
            111 119 18 29 84 hvcurveto
            1 callgsubr
            22 -92 -101 11 -103 hhcurveto
            -488 -280 -251 -513 return
          </CharString>
          <CharString index="85">
            rmoveto
            113 124 12 20 120 hvcurveto
            181 callsubr
            32 callgsubr
            endchar
          </CharString>
          <CharString index="86">
            rmoveto
            121 70 68 111 112 -70 68 -121 -39 callsubr
          </CharString>
          <CharString index="87">
            rmoveto
            225 hlineto
            47 61 36 93 76 vvcurveto
            104 79 callsubr
          </CharString>
          <CharString index="88">
            rmoveto
            151 68 70 119 119 -68 70 -151 -151 return
          </CharString>
          <CharString index="89">
            12 82 158 3 108 vvcurveto
            96 -81 45 -181 -66 return
          </CharString>
          <CharString index="90">
            rmoveto
            299 82 callsubr
            171 callsubr
            endchar
          </CharString>
          <CharString index="91">
            176 hmoveto
            355 817 255 280 -255 return
          </CharString>
          <CharString index="92">
            rmoveto
            128 94 90 125 125 -94 90 -128 return
          </CharString>
          <CharString index="93">
            247 0 -213 390 rlineto
            -297 hlineto
            return
          </CharString>
          <CharString index="94">
            -7 -103 hvcurveto
            -624 -233 rmoveto
            255 hlineto
            return
          </CharString>
          <CharString index="95">
            rmoveto
            224 hlineto
            48 61 36 93 76 vvcurveto
            104 return
          </CharString>
          <CharString index="96">
            rmoveto
            322 hlineto
            -85 callsubr
            return
          </CharString>
          <CharString index="97">
            rmoveto
            321 hlineto
            -85 callsubr
            return
          </CharString>
          <CharString index="98">
            -1626 -53 callsubr
            return
          </CharString>
          <CharString index="99">
            -1635 -83 callsubr
            return
          </CharString>
          <CharString index="100">
            -1920 -69 callsubr
            return
          </CharString>
          <CharString index="101">
            1266 rmoveto
            84 61 24 56 return
          </CharString>
          <CharString index="102">
            1226 -103 callgsubr
            return
          </CharString>
          <CharString index="103">
            505 -17 137 callsubr
            return
          </CharString>
          <CharString index="104">
            255 hlineto
            9 callsubr
            return
          </CharString>
          <CharString index="105">
            rmoveto
            247 hlineto
            114 226 return
          </CharString>
          <CharString index="106">
            1823 rmoveto
            181 hlineto
            return
          </CharString>
          <CharString index="107">
            1590 rmoveto
            270 hlineto
            return
          </CharString>
          <CharString index="108">
            1300 rmoveto
            303 hlineto
            return
          </CharString>
          <CharString index="109">
            1236 rmoveto
            212 136 114 245 13 hvcurveto
            -216 hlineto
            -124 -8 -50 -53 -87 hhcurveto
            -88 -50 53 124 -8 hvcurveto
            -216 hlineto
            -245 13 137 -114 212 hhcurveto
            return
          </CharString>
          <CharString index="110">
            102 hlineto
            99 57 52 107 30 28 -3 -8 29 vhcurveto
            281 vlineto
            12 -42 -50 4 -52 hhcurveto
            -293 -169 -177 -283 hvcurveto
            -79 -158 -280 158 vlineto
            return
          </CharString>
          <CharString index="111">
            1616 -359 -505 hlineto
            2 -22 -25 2 -25 hhcurveto
            -399 -191 -210 -379 -385 197 -162 224 hvcurveto
            return
          </CharString>
          <CharString index="112">
            -93 -9 -15 -55 vhcurveto
            -133 vlineto
            15 60 66 8 58 hhcurveto
            71 31 -12 -24 -43 -150 -3 -7 -118 hvcurveto
            return
          </CharString>
          <CharString index="113">
            -507 hmoveto
            125 68 59 105 104 -68 60 -125 -125 -67 -60 -104 -105 67 -59 125 hvcurveto
            return
          </CharString>
          <CharString index="114">
            -182 -66 -92 callgsubr
            66 8 58 hhcurveto
            70 32 -12 -24 -43 -150 -3 -8 -118 hvcurveto
            return
          </CharString>
          <CharString index="115">
            vlineto
            5 27 33 3 30 hhcurveto
            182 106 -80 -251 -250 -99 -80 -185 hvcurveto
            endchar
          </CharString>
          <CharString index="116">
            122 160 123 -160 255 0 -226 272 rlineto
            -303 hlineto
            return
          </CharString>
          <CharString index="117">
            858 281 -437 hlineto
            427 591 rlineto
            225 -838 -280 return
          </CharString>
          <CharString index="118">
            -54 hvcurveto
            -211 vlineto
            49 62 56 24 83 117 93 -78 138 hhcurveto
            return
          </CharString>
          <CharString index="119">
            114 -226 248 0 -213 390 rlineto
            -297 hlineto
            return
          </CharString>
          <CharString index="120">
            8 53 hhcurveto
            57 28 -14 -30 -62 -132 -11 -7 -147 hvcurveto
            return
          </CharString>
          <CharString index="121">
            -507 hmoveto
            30 callsubr
            -73 callsubr
            endchar
          </CharString>
          <CharString index="122">
            471 hlineto
            256 1040 239 -1040 472 0 return
          </CharString>
          <CharString index="123">
            115 226 114 -226 -14 callsubr
            endchar
          </CharString>
          <CharString index="124">
            -1157 vlineto
            -12 112 135 -7 114 hhcurveto
            return
          </CharString>
          <CharString index="125">
            -1443 202 callsubr
            -45 callgsubr
            return
          </CharString>
          <CharString index="126">
            1226 rmoveto
            177 hlineto
            12 -44 callgsubr
            return
          </CharString>
          <CharString index="127">
            205 2012 rmoveto
            749 221 -749 hlineto
            return
          </CharString>
          <CharString index="128">
            rmoveto
            297 hlineto
            768 1752 rlineto
            -296 hlineto
            return
          </CharString>
          <CharString index="129">
            -140 -79 -57 -107 -107 79 -57 140 hvcurveto
            endchar
          </CharString>
          <CharString index="130">
            401 -55 callsubr
            114 callsubr
            return
          </CharString>
          <CharString index="131">
            355 hlineto
            97 367 472 0 98 -367 return
          </CharString>
          <CharString index="132">
            351 hlineto
            70 267 373 0 70 -267 return
          </CharString>
          <CharString index="133">
            1345 rmoveto
            748 222 -748 hlineto
            return
          </CharString>
          <CharString index="134">
            1237 34 callsubr
            68 -120 return
          </CharString>
          <CharString index="135">
            -68 -70 -119 -119 68 -70 151 hvcurveto
            return
          </CharString>
          <CharString index="136">
            -226 -115 226 rlineto
            -247 hlineto
            return
          </CharString>
          <CharString index="137">
            125 68 60 104 105 -68 59 -125 return
          </CharString>
          <CharString index="138">
            35 59 22 51 hhcurveto
            69 44 -32 -105 hvcurveto
            return
          </CharString>
          <CharString index="139">
            -40 -42 -119 hhcurveto
            -119 -40 42 76 return
          </CharString>
          <CharString index="140">
            -60 -78 -10 -16 -52 vhcurveto
            -136 vlineto
            16 return
          </CharString>
          <CharString index="141">
            rmoveto
            120 71 68 114 113 -71 return
          </CharString>
          <CharString index="142">
            1963 rmoveto
            -67 callgsubr
            return
          </CharString>
          <CharString index="143">
            -420 1480 rlineto
            -541 hlineto
            return
          </CharString>
          <CharString index="144">
            -301 148 -127 266 vhcurveto
            return
          </CharString>
          <CharString index="145">
            -129 114 167 callsubr
            return
          </CharString>
          <CharString index="146">
            -113 -114 71 -68 120 hvcurveto
            return
          </CharString>
          <CharString index="147">
            127 616 186 callsubr
            return
          </CharString>
          <CharString index="148">
            60 104 105 -67 59 -125 -125 return
          </CharString>
          <CharString index="149">
            -67 -59 -105 -104 67 -60 125 hvcurveto
            return
          </CharString>
          <CharString index="150">
            rmoveto
            749 221 -749 hlineto
            endchar
          </CharString>
          <CharString index="151">
            rmoveto
            748 221 -748 hlineto
            endchar
          </CharString>
          <CharString index="152">
            rmoveto
            705 220 -705 hlineto
            endchar
          </CharString>
          <CharString index="153">
            rmoveto
            321 hlineto
            109 callsubr
            return
          </CharString>
          <CharString index="154">
            1590 -10 callsubr
            return
          </CharString>
          <CharString index="155">
            1309 -26 callsubr
            return
          </CharString>
          <CharString index="156">
            1230 139 callsubr
            return
          </CharString>
          <CharString index="157">
            -275 -310 rmoveto
            270 hlineto
            return
          </CharString>
          <CharString index="158">
            -131 -111 -155 vhcurveto
            endchar
          </CharString>
          <CharString index="159">
            879 276 -879 hlineto
            endchar
          </CharString>
          <CharString index="160">
            878 276 -878 hlineto
            endchar
          </CharString>
          <CharString index="161">
            360 243 198 412 return
          </CharString>
          <CharString index="162">
            97 hmoveto
            359 737 hlineto
            42 return
          </CharString>
          <CharString index="163">
            rmoveto
            225 121 104 162 return
          </CharString>
          <CharString index="164">
            rmoveto
            177 hlineto
            12 72 158 return
          </CharString>
          <CharString index="165">
            1831 rmoveto
            181 hlineto
            return
          </CharString>
          <CharString index="166">
            1300 rmoveto
            177 hlineto
            return
          </CharString>
          <CharString index="167">
            -73 callgsubr
            384 return
          </CharString>
          <CharString index="168">
            -142 253 callsubr
            return
          </CharString>
          <CharString index="169">
            201 91 callsubr
            return
          </CharString>
          <CharString index="170">
            rmoveto
            408 267 237 523 269 -71 194 -125 123 hvcurveto
            129 30 83 91 170 151 callsubr
            -40 -108 vhcurveto
            -89 -78 21 -109 hhcurveto
            -78 callgsubr
            -524 266 -236 409 hvcurveto
            299 vmoveto
            248 callsubr
          </CharString>
          <CharString index="171">
            360 523 hlineto
            -1 41 35 -2 49 hhcurveto
            334 -520 394 0 -384 584 169 76 99 143 -1 207 rlinecurve
            331 -214 158 -424 -163 -160 -21 -30 -135 vhcurveto
            493 -650 rmoveto
            -51 -37 3 4 -45 hvcurveto
            407 vlineto
            8 42 44 5 57 hhcurveto
            163 86 -67 -148 -153 -88 -59 -171 hvcurveto
            endchar
          </CharString>
          <CharString index="172">
            358 401 hlineto
            23 -1 23 -1 25 -1 rrcurveto
            259 -398 392 0 -311 462 rlineto
            131 65 79 113 160 vvcurveto
            272 -191 135 -375 -148 -143 -19 -27 -122 vhcurveto
            451 -509 rmoveto
            -36 -22 1 2 -35 hvcurveto
            293 vlineto
            5 28 34 3 34 hhcurveto
            121 64 -46 -108 -104 -61 -46 -127 hvcurveto
            endchar
          </CharString>
          <CharString index="173">
            957 hlineto
            104 39 65 87 149 vvcurveto
            54 -4 50 -85 callgsubr
            -43 -40 vvcurveto
            -114 -59 -40 -104 vhcurveto
            -135 -739 hlineto
            104 callgsubr
            -84 callsubr
          </CharString>
          <CharString index="174">
            182 -44 140 -85 94 hvcurveto
            108 38 68 88 152 vvcurveto
            53 -4 51 -85 callgsubr
            -44 -40 vvcurveto
            -114 -59 -39 -104 vhcurveto
            -37 -61 10 -69 hhcurveto
            -333 -188 -185 -387 -106 callsubr
            -99 callsubr
          </CharString>
          <CharString index="175">
            205 -60 153 -104 100 hvcurveto
            110 27 70 75 143 vvcurveto
            45 -4 43 -12 43 vhcurveto
            -240 hlineto
            10 -44 3 -36 -32 vvcurveto
            -95 -48 -31 -91 vhcurveto
            -74 -73 16 -90 hhcurveto
            -77 callgsubr
            -100 callsubr
          </CharString>
          <CharString index="176">
            467 hlineto
            196 786 181 -786 466 0 286 1190 -339 0 -198 -862 -196 862 -394 0 -206 -848 -187 848 rlineto
            -363 hlineto
            endchar
          </CharString>
          <CharString index="177">
            389 hlineto
            185 740 180 -740 389 0 268 1097 -321 0 -156 -679 -160 679 -389 0 -168 -696 -152 696 rlineto
            -335 hlineto
            endchar
          </CharString>
          <CharString index="178">
            728 vlineto
            109 36 68 90 152 151 callsubr
            -39 -108 vhcurveto
            -121 -907 hlineto
            196 callsubr
            -82 callsubr
          </CharString>
          <CharString index="179">
            347 1480 -344 0 -256 -1133 -255 1133 -399 0 -266 -1117 -244 1117 rlineto
            -369 hlineto
            endchar
          </CharString>
          <CharString index="180">
            115 297 rmoveto
            -104 -69 55 225 216 72 71 141 26 35 -4 -4 25 hvcurveto
            -514 vlineto
            -30 -32 -48 -15 -46 hhcurveto
            return
          </CharString>
          <CharString index="181">
            rmoveto
            218 hlineto
            90 13 50 41 96 hhcurveto
            97 163 callsubr
            -229 hhcurveto
            -228 -128 -114 -190 -21 hvcurveto
            return
          </CharString>
          <CharString index="182">
            -218 hlineto
            -90 -13 -50 -41 -96 hhcurveto
            -97 -50 41 90 -14 hvcurveto
            -217 hlineto
            -190 21 128 -114 229 hhcurveto
            return
          </CharString>
          <CharString index="183">
            114 226 115 -226 -14 callsubr
            return
          </CharString>
          <CharString index="184">
            rmoveto
            90 93 13 25 77 hvcurveto
            149 callsubr
            191 callsubr
            -385 197 -182 355 hvcurveto
            endchar
          </CharString>
          <CharString index="185">
            356 0 -340 1190 rlineto
            -541 hlineto
            153 -650 rmoveto
            114 442 116 -442 rlineto
            return
          </CharString>
          <CharString index="186">
            -59 -87 callgsubr
            42 -30 callgsubr
          </CharString>
          <CharString index="187">
            -49 -41 -97 hhcurveto
            -97 -49 41 90 -14 hvcurveto
            -218 hlineto
            -190 21 129 -114 228 hhcurveto
            return
          </CharString>
          <CharString index="188">
            1601 rmoveto
            91 -31 callsubr
            -62 -56 -24 -83 -117 -30 callsubr
            return
          </CharString>
          <CharString index="189">
            180 137 226 193 -98 88 -178 38 hvcurveto
            -169 34 rlineto
            -50 12 return
          </CharString>
          <CharString index="190">
            59 105 104 -67 60 -125 -125 -68 -60 -104 -105 68 -59 125 hvcurveto
            return
          </CharString>
          <CharString index="191">
            rmoveto
            121 71 68 111 112 -71 68 -121 -39 callsubr
          </CharString>
          <CharString index="192">
            2 95 vvcurveto
            84 -81 40 -181 -66 -93 -86 callgsubr
            66 7 return
          </CharString>
          <CharString index="193">
            -103 -93 -60 callgsubr
            76 103 93 -94 125 hhcurveto
            return
          </CharString>
          <CharString index="194">
            -121 -71 -69 -113 -114 71 -68 121 hvcurveto
            return
          </CharString>
          <CharString index="195">
            rmoveto
            251 132 125 171 109 -37 79 return
          </CharString>
          <CharString index="196">
            246 189 112 211 -112 262 return
          </CharString>
          <CharString index="197">
            1635 rmoveto
            748 222 -748 hlineto
            return
          </CharString>
          <CharString index="198">
            85 74 117 99 -63 62 -118 18 hvcurveto
            return
          </CharString>
          <CharString index="199">
            rmoveto
            113 63 46 87 87 -63 46 -113 return
          </CharString>
          <CharString index="200">
            hlineto
            -98 -13 -50 -44 -94 hhcurveto
            -94 -50 44 98 return
          </CharString>
          <CharString index="201">
            -569 rmoveto
            749 222 -749 hlineto
            return
          </CharString>
          <CharString index="202">
            -533 272 -223 478 hvcurveto
            endchar
          </CharString>
          <CharString index="203">
            -420 241 -188 430 hvcurveto
            endchar
          </CharString>
          <CharString index="204">
            -316 582 -20 182 callsubr
            return
          </CharString>
          <CharString index="205">
            216 70 199 252 vvcurveto
            904 return
          </CharString>
          <CharString index="206">
            151 472 -15 138 callsubr
            return
          </CharString>
          <CharString index="207">
            97 280 rmoveto
            -25 -31 0 3 -38 hvcurveto
            return
          </CharString>
          <CharString index="208">
            181 -603 -77 callsubr
            return
          </CharString>
          <CharString index="209">
            114 226 12 callsubr
            return
          </CharString>
          <CharString index="210">
            7 571 -21 -64 callsubr
            return
          </CharString>
          <CharString index="211">
            1 96 vvcurveto
            84 -81 39 -181 -66 return
          </CharString>
          <CharString index="212">
            rmoveto
            269 hlineto
            -27 callsubr
            return
          </CharString>
          <CharString index="213">
            -1287 -64 callsubr
            return
          </CharString>
          <CharString index="214">
            -1327 -68 callsubr
            return
          </CharString>
          <CharString index="215">
            1300 -10 callsubr
            return
          </CharString>
          <CharString index="216">
            -169 310 rlineto
            -375 hlineto
            return
          </CharString>
          <CharString index="217">
            -153 -136 -89 -81 -140 return
          </CharString>
          <CharString index="218">
            -127 310 rlineto
            -287 hlineto
            return
          </CharString>
          <CharString index="219">
            1022 197 callsubr
            hlineto
            return
          </CharString>
          <CharString index="220">
            911 198 callsubr
            hlineto
            return
          </CharString>
          <CharString index="221">
            222 232 rlineto
            -411 hlineto
            return
          </CharString>
          <CharString index="222">
            hvcurveto
            227 vlineto
            -61 -62 -56 -27 return
          </CharString>
          <CharString index="223">
            rmoveto
            958 291 -494 hlineto
            return
          </CharString>
          <CharString index="224">
            rmoveto
            110 94 37 93 57 hvcurveto
            15 hlineto
            26 -109 rlineto
            293 645 hlineto
            351 -150 119 -348 -108 -133 -15 -27 -105 vhcurveto
            -276 vlineto
            27 91 105 13 81 hhcurveto
            163 54 -44 -127 hvcurveto
            -133 -9 rlineto
            -319 -20 -130 -123 -212 vvcurveto
            -194 130 -129 207 vhcurveto
            14 361 rmoveto
            71 43 42 96 6 vhcurveto
            92 7 rlineto
            -187 vlineto
            -34 -36 -44 -11 -40 hhcurveto
            -69 -42 36 70 hvcurveto
            return
          </CharString>
          <CharString index="225">
            rmoveto
            351 181 159 230 194 -111 107 -242 56 hvcurveto
            -83 18 rlineto
            -114 28 -17 22 42 vvcurveto
            51 40 36 189 89 96 -12 -17 80 vhcurveto
            280 vlineto
            15 -78 -105 13 -103 hhcurveto
            -397 -168 -161 -228 -184 107 -116 224 -50 hvcurveto
            83 -18 rlineto
            128 -30 25 -26 -44 vvcurveto
            -52 -36 -33 -143 -106 -133 18 30 -109 vhcurveto
            -280 vlineto
            -28 93 133 -20 126 hhcurveto
            return
          </CharString>
          <CharString index="226">
            rmoveto
            311 184 188 355 346 -159 139 -230 -215 -140 -123 -203 -214 141 -91 156 64 60 16 28 46 hvcurveto
            -155 -8 -74 -72 -154 hhcurveto
            -62 -57 8 19 -58 hvcurveto
            -213 vlineto
            -19 52 70 -9 73 hhcurveto
            3 711 rmoveto
            82 41 37 60 66 43 -41 -163 5 vhcurveto
            -22 -33 -36 -10 -37 hhcurveto
            -66 -43 35 82 hvcurveto
            endchar
          </CharString>
          <CharString index="227">
            rmoveto
            203 139 123 203 214 -141 91 -156 -64 -60 -16 -28 -46 hvcurveto
            155 8 74 72 154 hhcurveto
            62 57 -8 -19 58 hvcurveto
            213 vlineto
            19 -52 -70 9 -73 hhcurveto
            -311 -184 -188 -355 -346 159 -139 243 hvcurveto
            -19 434 rmoveto
            66 43 -35 -82 -82 -41 -37 -60 -66 -43 41 163 -5 hvcurveto
            22 33 36 10 37 hhcurveto
            endchar
          </CharString>
          <CharString index="228">
            367 -1766 88 callsubr
            -115 64 hvcurveto
            97 60 32 79 84 vvcurveto
            159 -126 98 -220 -248 -131 5 callgsubr
            39 37 76 81 callgsubr
            -23 -457 rmoveto
            43 20 49 50 34 vhcurveto
            2 -1 rlineto
            144 -44 36 -33 -60 vvcurveto
            -58 -36 -36 -86 -85 -45 39 67 vhcurveto
            endchar
          </CharString>
          <CharString index="229">
            rmoveto
            276 152 109 214 1 hvcurveto
            187 -120 98 -266 26 vhcurveto
            10 163 rlineto
            338 217 -586 hlineto
            -34 -575 152 -11 rlineto
            189 -14 48 -33 -70 vvcurveto
            -66 -49 -35 -121 -76 -95 12 21 -75 vhcurveto
            -209 vlineto
            -22 77 88 -12 91 hhcurveto
            endchar
          </CharString>
          <CharString index="230">
            -116 64 hvcurveto
            98 60 32 79 84 vvcurveto
            159 -126 98 -221 -248 -130 5 callgsubr
            38 37 77 81 callgsubr
            -24 -457 rmoveto
            43 21 49 49 34 vhcurveto
            3 -1 rlineto
            143 -44 36 -33 -60 vvcurveto
            -58 -36 -36 -85 -86 -45 39 67 vhcurveto
            endchar
          </CharString>
          <CharString index="231">
            rmoveto
            226 153 146 368 368 -154 146 -225 -226 -154 -146 -368 -368 154 -146 226 hvcurveto
            226 vmoveto
            -64 -41 48 240 240 41 49 64 63 41 -49 -240 -241 -41 -47 -63 hvcurveto
            endchar
          </CharString>
          <CharString index="232">
            -580 277 1230 rmoveto
            22 callgsubr
            -180 -1230 rmoveto
            return
          </CharString>
          <CharString index="233">
            -340 97 hmoveto
            359 699 hlineto
            54 44 90 34 87 hhcurveto
            33 41 -2 -8 34 hvcurveto
            329 vlineto
            4 -23 -32 4 -29 hhcurveto
            -117 -97 -46 -117 -52 hvcurveto
            -16 hlineto
            -28 146 rlineto
            -294 hlineto
            return
          </CharString>
          <CharString index="234">
            rmoveto
            373 218 180 288 234 -136 132 -255 72 hvcurveto
            -116 34 rlineto
            -126 38 -32 35 66 vvcurveto
            80 63 61 226 callsubr
            -40 115 149 -23 135 hhcurveto
            return
          </CharString>
          <CharString index="235">
            1236 rmoveto
            212 137 114 245 13 hvcurveto
            -217 hlineto
            -124 -7 -50 -53 -88 hhcurveto
            -87 -50 53 124 -8 hvcurveto
            -217 hlineto
            -245 13 137 -114 212 hhcurveto
            return
          </CharString>
          <CharString index="236">
            359 699 hlineto
            54 44 90 34 87 hhcurveto
            33 41 -2 -8 34 hvcurveto
            329 vlineto
            4 -23 -32 4 -29 hhcurveto
            -117 -97 -46 -117 -52 hvcurveto
            -16 hlineto
            -28 146 rlineto
            -294 hlineto
            endchar
          </CharString>
          <CharString index="237">
            rmoveto
            683 233 -308 hlineto
            130 161 rlineto
            97 120 39 96 99 vvcurveto
            215 -145 90 -257 -87 -101 -14 -22 -65 vhcurveto
            -225 vlineto
            22 49 callgsubr
            endchar
          </CharString>
          <CharString index="238">
            -412 243 -198 360 hvcurveto
            278 vmoveto
            -151 -80 92 247 235 81 92 150 150 82 -94 -245 -233 -81 -94 -151 hvcurveto
            return
          </CharString>
          <CharString index="239">
            -440 rmoveto
            360 434 hlineto
            -9 23 25 -4 26 hhcurveto
            78 66 43 86 53 hvcurveto
            15 hlineto
            25 -110 rlineto
            297 -87 callsubr
            vlineto
            endchar
          </CharString>
          <CharString index="240">
            107 437 hmoveto
            367 1167 -25 callgsubr
            hlineto
            return
          </CharString>
          <CharString index="241">
            hhcurveto
            86 52 -53 -128 8 hvcurveto
            216 hlineto
            245 -13 -139 114 -210 hhcurveto
            -216 -132 -114 -245 -13 hvcurveto
            return
          </CharString>
          <CharString index="242">
            rmoveto
            281 149 108 187 126 -66 82 -124 27 hvcurveto
            99 30 60 -48 callgsubr
            229 callsubr
            endchar
          </CharString>
          <CharString index="243">
            hlineto
            -64 -129 249 -121 125 250 rlineto
            468 276 -329 hlineto
            90 180 rlineto
            239 276 -101 hlineto
            return
          </CharString>
          <CharString index="244">
            rmoveto
            569 280 226 531 521 -265 237 -522 -158 -163 -20 -30 -137 hvcurveto
            return
          </CharString>
          <CharString index="245">
            rmoveto
            504 246 185 424 419 -233 193 -464 -142 -149 -18 -27 -123 hvcurveto
            return
          </CharString>
          <CharString index="246">
            rmoveto
            151 68 69 120 119 -68 70 -151 -151 -68 -70 -119 -120 68 -69 151 hvcurveto
            return
          </CharString>
          <CharString index="247">
            176 64 167 -1 202 rrcurveto
            929 -364 -944 vlineto
            -163 -25 -101 -92 -120 vhcurveto
            endchar
          </CharString>
          <CharString index="248">
            20 hvcurveto
            -217 93 callsubr
            -14 hvcurveto
            -217 hlineto
            -197 20 129 -118 226 hhcurveto
            endchar
          </CharString>
          <CharString index="249">
            76 41 -22 -48 -49 -38 -18 -77 -51 -69 9 20 -57 hvcurveto
            -138 vlineto
            -18 56 65 -11 75 hhcurveto
            return
          </CharString>
          <CharString index="250">
            rmoveto
            225 hlineto
            48 61 36 93 76 vvcurveto
            104 -60 -32 callgsubr
            -18 -44 -33 -61 rrcurveto
            endchar
          </CharString>
          <CharString index="251">
            -452 rmoveto
            73 57 12 19 53 hvcurveto
            139 vlineto
            -19 -52 -44 -8 -38 hhcurveto
            -95 -40 35 return
          </CharString>
          <CharString index="252">
            -190 hlineto
            -56 -262 -142 0 258 600 -263 0 -289 -658 rlineto
            return
          </CharString>
          <CharString index="253">
            1296 rmoveto
            30 callsubr
            return
          </CharString>
          <CharString index="254">
            -919 vlineto
            -211 -35 51 callsubr
          </CharString>
          <CharString index="255">
            hlineto
            603 965 rlineto
            203 -1066 -312 593 vlineto
            -603 -965 rlineto
            return
          </CharString>
          <CharString index="256">
            286 vlineto
            -21 -75 -58 -10 -58 hhcurveto
            -166 -83 72 207 194 82 77 return
          </CharString>
          <CharString index="257">
            268 vmoveto
            -6 callgsubr
            98 56 -59 -245 -239 -54 -57 -100 hvcurveto
            return
          </CharString>
          <CharString index="258">
            vvcurveto
            56 -4 51 -16 52 vhcurveto
            -244 hlineto
            12 -54 4 -44 -42 vvcurveto
            -117 -59 return
          </CharString>
          <CharString index="259">
            rmoveto
            294 hlineto
            292 850 rlineto
            150 -678 -233 370 vlineto
            endchar
          </CharString>
          <CharString index="260">
            -1616 rmoveto
            -70 callgsubr
          </CharString>
          <CharString index="261">
            190 -82 97 110 callsubr
            -123 77 -80 -38 callgsubr
          </CharString>
          <CharString index="262">
            -53 hvcurveto
            -211 vlineto
            49 62 56 24 83 117 92 -78 139 hhcurveto
            return
          </CharString>
          <CharString index="263">
            rrcurveto
            -224 hlineto
            -48 -60 -36 -94 -76 vvcurveto
            -103 59 -60 138 vhcurveto
            endchar
          </CharString>
          <CharString index="264">
            rmoveto
            217 hlineto
            90 14 49 41 97 hhcurveto
            97 49 -41 -90 14 hvcurveto
            return
          </CharString>
          <CharString index="265">
            -254 0 -123 -180 -123 180 rlineto
            -254 hlineto
            return
          </CharString>
          <CharString index="266">
            331 109 hmoveto
            -49 callsubr
            -40 callsubr
            return
          </CharString>
          <CharString index="267">
            316 109 hmoveto
            366 592 500 -592 366 return
          </CharString>
          <CharString index="268">
            188 111 hmoveto
            364 455 373 -455 364 return
          </CharString>
          <CharString index="269">
            122 826 rmoveto
            221 hlineto
            68 790 rlineto
            -357 hlineto
            return
          </CharString>
          <CharString index="270">
            50 -41 -90 14 hvcurveto
            217 hlineto
            190 -21 -128 114 return
          </CharString>
          <CharString index="271">
            1480 -366 -560 -500 560 -366 hlineto
            return
          </CharString>
          <CharString index="272">
            1190 -364 -429 -373 429 -364 hlineto
            return
          </CharString>
          <CharString index="273">
            241 rlineto
            -231 hlineto
            -724 -474 rmoveto
            255 hlineto
            return
          </CharString>
          <CharString index="274">
            -228 hhcurveto
            -228 -128 -114 -190 -21 hvcurveto
            return
          </CharString>
          <CharString index="275">
            -128 -94 -90 -125 -125 94 -90 128 hvcurveto
            return
          </CharString>
          <CharString index="276">
            79 -139 hhcurveto
            -91 -61 -24 -51 11 callsubr
            return
          </CharString>
          <CharString index="277">
            9 20 -57 hvcurveto
            -138 vlineto
            -18 56 65 -11 76 hhcurveto
            return
          </CharString>
          <CharString index="278">
            228 callsubr
            -33 100 113 -15 119 hhcurveto
            return
          </CharString>
          <CharString index="279">
            rmoveto
            137 59 47 77 65 -42 45 -102 11 hvcurveto
            9 return
          </CharString>
          <CharString index="280">
            1300 rmoveto
            269 hlineto
            -127 310 rlineto
            return
          </CharString>
          <CharString index="281">
            -115 -226 -114 226 rlineto
            -247 hlineto
            return
          </CharString>
          <CharString index="282">
            1086 312 -613 148 callsubr
            endchar
          </CharString>
          <CharString index="283">
            980 313 -614 1167 -366 hlineto
            return
          </CharString>
          <CharString index="284">
            56 callsubr
            22 hvcurveto
            -184 hlineto
            -76 -25 return
          </CharString>
          <CharString index="285">
            192 109 hmoveto
            360 523 hlineto
            -1 41 35 -2 49 hhcurveto
            334 -520 394 0 -384 584 169 76 99 143 -1 207 rlinecurve
            331 -214 158 -424 -163 -160 -21 -30 -135 vhcurveto
            493 -650 rmoveto
            -51 -37 3 4 -45 hvcurveto
            407 vlineto
            8 42 44 5 57 hhcurveto
            163 86 -67 -148 -153 -88 -59 -171 hvcurveto
            return
          </CharString>
          <CharString index="286">
            62 111 hmoveto
            358 401 hlineto
            23 -1 23 -1 25 -1 rrcurveto
            259 -398 392 0 -311 462 rlineto
            131 65 79 113 160 vvcurveto
            272 -191 135 -375 -148 -143 -19 -27 -122 vhcurveto
            451 -509 rmoveto
            -36 -22 1 2 -35 hvcurveto
            293 vlineto
            5 28 34 3 34 hhcurveto
            121 64 -46 -108 -104 -61 -46 -127 hvcurveto
            return
          </CharString>
          <CharString index="287">
            359 738 hlineto
            42 35 57 22 53 hhcurveto
            69 44 -32 -102 hvcurveto
            -668 359 693 vlineto
            307 -148 115 -199 -120 -100 -45 -83 -71 vhcurveto
            -16 hlineto
            -25 110 rlineto
            -297 hlineto
            return
          </CharString>
          <CharString index="288">
            707 -339 -435 vlineto
            -1 -18 -18 0 -17 hhcurveto
            -270 -139 127 322 338 144 124 335 97 90 -13 -21 95 hvcurveto
            303 vlineto
            return
          </CharString>
          <CharString index="289">
            rmoveto
            70 77 10 14 55 hvcurveto
            90 callgsubr
            360 255 280 -255 383 -293 vlineto
            -66 -383 rlineto
            -158 -280 158 -409 hlineto
            return
          </CharString>
          <CharString index="290">
            hvcurveto
            -217 hlineto
            -90 -13 -50 42 callgsubr
            return
          </CharString>
          <CharString index="291">
            7 97 hmoveto
            359 422 81 hlineto
            258 -422 387 0 -344 572 308 525 -379 0 -232 -391 rlineto
            -79 return
          </CharString>
          <CharString index="292">
            -403 177 -170 414 vhcurveto
            -95 908 rmoveto
            87 41 -52 -183 3 hvcurveto
            -267 hlineto
            184 3 44 51 89 hhcurveto
            return
          </CharString>
          <CharString index="293">
            rmoveto
            650 233 -178 771 -179 hlineto
            -285 -177 0 -250 180 113 rlineto
            -457 -188 vlineto
            return
          </CharString>
          <CharString index="294">
            rmoveto
            84 61 24 56 -64 callgsubr
            190 callsubr
          </CharString>
          <CharString index="295">
            rmoveto
            -104 -69 55 225 216 72 71 141 26 35 -4 -4 25 hvcurveto
            -514 vlineto
            -30 -32 -48 -15 -46 hhcurveto
            endchar
          </CharString>
          <CharString index="296">
            rmoveto
            150 69 69 120 119 -69 70 -150 -151 -69 -70 -119 -120 69 -69 151 hvcurveto
            endchar
          </CharString>
          <CharString index="297">
            -92 95 -125 hhcurveto
            -85 -61 -24 -56 -53 hvcurveto
            -228 vlineto
            61 62 56 27 75 104 93 -94 125 hhcurveto
            endchar
          </CharString>
          <CharString index="298">
            192 54 56 -6 -9 56 hvcurveto
            286 vlineto
            15 -70 -74 7 -82 hhcurveto
            -365 -221 -174 -395 return
          </CharString>
          <CharString index="299">
            hvcurveto
            217 hlineto
            245 -13 -140 114 -209 hhcurveto
            -216 -133 -114 -245 -13 hvcurveto
            return
          </CharString>
          <CharString index="300">
            rmoveto
            137 93 88 133 133 -89 87 -141 -141 -90 -84 -16 callgsubr
          </CharString>
          <CharString index="301">
            127 vmoveto
            -51 -35 34 54 55 35 34 51 50 35 -34 -55 -54 -35 -34 -50 hvcurveto
            endchar
          </CharString>
          <CharString index="302">
            hvcurveto
            -152 -345 rmoveto
            303 hlineto
            226 310 return
          </CharString>
          <CharString index="303">
            -210 -84 -80 -160 -160 -86 80 210 vhcurveto
            907 -366 -869 vlineto
            return
          </CharString>
          <CharString index="304">
            301 -661 304 548 301 -548 273 651 301 -1012 return
          </CharString>
          <CharString index="305">
            272 -554 196 457 272 -457 178 546 272 -903 return
          </CharString>
          <CharString index="306">
            127 vmoveto
            -50 -35 34 54 55 35 34 50 50 35 -34 -55 -54 -35 -34 -50 hvcurveto
            return
          </CharString>
          <CharString index="307">
            126 vmoveto
            -50 -35 34 55 54 35 34 50 50 35 -34 -54 -55 -35 -34 -50 hvcurveto
            return
          </CharString>
          <CharString index="308">
            114 28 157 165 vvcurveto
            -239 hlineto
            -159 -8 -125 -23 -152 vhcurveto
            return
          </CharString>
          <CharString index="309">
            vlineto
            -15 128 146 -7 122 hhcurveto
            98 300 rmoveto
            -38 -41 0 4 -49 hvcurveto
            return
          </CharString>
          <CharString index="310">
            hlineto
            -117 -68 -42 -77 -91 vvcurveto
            -133 92 -83 196 73 57 12 19 return
          </CharString>
          <CharString index="311">
            rmoveto
            125 116 36 114 95 hvcurveto
            -103 91 147 -47 212 hhcurveto
            100 96 10 25 113 hvcurveto
            275 vlineto
            -20 -90 -90 39 callgsubr
            -130 -102 -44 -80 -73 vhcurveto
            84 -72 -117 40 -172 hhcurveto
            -102 -110 -12 -30 -117 hvcurveto
            -276 vlineto
            27 91 106 13 77 hhcurveto
            160 65 -43 -132 hvcurveto
            -10 -133 vlineto
            -322 -133 -141 -205 -201 130 -126 242 hvcurveto
            691 908 rmoveto
            83 42 -51 -184 3 hvcurveto
            -259 hlineto
            184 3 44 51 84 hhcurveto
            -596 -652 rmoveto
            -74 -42 36 65 70 41 47 103 hvcurveto
            96 hlineto
            5 -56 8 -51 13 -45 rrcurveto
            -50 -48 -48 -16 -54 hhcurveto
            endchar
          </CharString>
          <CharString index="312">
            619 -20 rmoveto
            358 193 181 249 164 -59 116 -179 95 hvcurveto
            148 88 54 120 129 vvcurveto
            234 -189 144 -311 -351 -188 -167 -249 -149 55 -121 150 -94 vhcurveto
            -158 -76 -82 -123 -149 vvcurveto
            -227 181 -165 378 vhcurveto
            -180 1116 rmoveto
            86 65 63 130 121 67 -55 -100 -85 -38 -66 -83 -61 vhcurveto
            -223 74 -39 50 94 vvcurveto
            -40 -687 rmoveto
            78 40 81 87 52 vhcurveto
            8 -2 8 -3 8 -2 rrcurveto
            224 -67 56 -53 -101 vvcurveto
            -97 -68 -60 -142 -148 -73 64 110 vhcurveto
            endchar
          </CharString>
          <CharString index="313">
            244 189 rmoveto
            105 108 90 105 rlineto
            -25 52 60 -13 65 hhcurveto
            64 60 13 25 52 hvcurveto
            90 -105 106 -108 178 179 -107 105 -104 89 rlineto
            25 52 15 60 66 vvcurveto
            66 -15 60 -25 51 vhcurveto
            104 90 108 105 -179 179 -105 -108 -92 -107 rlineto
            25 -52 -59 13 -64 hhcurveto
            -64 -60 -13 -25 -52 hvcurveto
            -91 107 -106 108 -178 -179 108 -105 104 -90 rlineto
            -26 -51 -14 -60 -66 vvcurveto
            -66 14 -60 25 -52 vhcurveto
            -103 -89 -108 -105 rlineto
            551 198 rmoveto
            -93 -69 65 109 109 69 65 95 96 63 -73 -101 -109 -69 -65 -92 hvcurveto
            endchar
          </CharString>
          <CharString index="314">
            rmoveto
            52 73 rlineto
            -59 103 125 -29 141 hhcurveto
            -28 callsubr
            243 -59 181 -102 124 hvcurveto
            139 194 -237 0 -50 -69 rlineto
            58 -102 -124 29 -140 hhcurveto
            -78 callgsubr
            -242 58 -181 102 -124 hvcurveto
            -143 -198 rlineto
            359 752 rmoveto
            -69 callgsubr
            69 58 -16 -38 47 vhcurveto
            -452 -625 rlineto
            -14 61 -7 75 89 vvcurveto
            299 -468 rmoveto
            -71 -59 16 39 -46 hvcurveto
            452 626 rlineto
            15 -62 8 -75 -90 vvcurveto
            -331 -109 -123 -190 vhcurveto
            endchar
          </CharString>
          <CharString index="315">
            rmoveto
            31 45 rlineto
            -32 71 85 -16 95 hhcurveto
            324 194 184 383 182 -44 138 -82 95 hvcurveto
            109 155 -225 0 -32 -47 rlineto
            31 -69 -82 15 -93 hhcurveto
            -329 -188 -185 -387 -177 42 -135 77 -93 hvcurveto
            -109 -156 rlineto
            338 565 rmoveto
            245 63 61 106 38 33 -8 -22 26 vhcurveto
            -261 -380 rlineto
            -3 30 -2 35 39 vvcurveto
            169 -306 rmoveto
            -42 -35 8 25 -26 hvcurveto
            266 388 rlineto
            4 -34 2 -39 -46 vvcurveto
            -243 -60 -59 -109 vhcurveto
            endchar
          </CharString>
          <CharString index="316">
            rmoveto
            187 125 90 106 99 hvcurveto
            -106 100 124 -90 189 hhcurveto
            241 156 146 232 232 -155 146 -242 -189 -124 -90 -106 -100 hvcurveto
            106 -99 -125 90 -187 hhcurveto
            -242 -155 -146 -232 -232 155 -146 242 hvcurveto
            -123 378 rmoveto
            95 61 60 90 91 70 -68 -87 71 vhcurveto
            -87 -71 -70 -68 -91 hhcurveto
            -90 -61 60 95 hvcurveto
            918 155 rmoveto
            91 60 -60 -95 -95 -61 -60 -90 -91 -69 68 87 -72 hvcurveto
            87 72 69 68 91 hhcurveto
            endchar
          </CharString>
          <CharString index="317">
            rmoveto
            45 58 rlineto
            -43 88 105 -21 118 hhcurveto
            54 callsubr
            193 -53 146 -93 101 hvcurveto
            130 166 -230 0 -46 -58 rlineto
            43 -88 -105 21 -118 hhcurveto
            -77 callgsubr
            -193 53 -145 93 -101 hvcurveto
            -129 -165 rlineto
            355 611 rmoveto
            235 81 92 150 47 41 -10 -20 33 vhcurveto
            -341 -438 rlineto
            -8 40 -3 47 54 vvcurveto
            231 -339 rmoveto
            -48 -40 9 21 -33 hvcurveto
            341 437 rlineto
            8 -40 4 -46 -54 vvcurveto
            -233 -81 -94 -151 vhcurveto
            endchar
          </CharString>
          <CharString index="318">
            rmoveto
            138 88 87 106 67 hvcurveto
            -106 66 88 -87 138 hhcurveto
            172 111 149 246 246 -111 149 -172 -137 -89 -87 -106 -66 hvcurveto
            106 -66 -89 87 -138 hhcurveto
            -172 -111 -149 -246 -246 111 -149 172 hvcurveto
            -58 395 rmoveto
            107 44 61 62 56 40 -74 -94 44 vhcurveto
            -94 -44 -40 -74 -56 hhcurveto
            -62 -44 61 107 hvcurveto
            596 168 rmoveto
            62 43 -61 -107 -107 -43 -61 -62 -56 -40 74 94 -45 hvcurveto
            94 45 40 74 56 hhcurveto
            endchar
          </CharString>
          <CharString index="319">
            -20 rmoveto
            335 231 203 513 550 -268 254 -448 -106 -101 -11 -30 -80 hvcurveto
            -285 vlineto
            28 86 86 13 100 hhcurveto
            212 119 -92 -204 34 hvcurveto
            44 -71 -94 25 -94 hhcurveto
            -249 -205 -135 -355 -341 203 -177 310 hvcurveto
            -182 506 rmoveto
            177 80 58 116 68 69 -18 -42 58 vhcurveto
            -27 vlineto
            -308 -83 -77 -129 -102 -77 60 177 vhcurveto
            endchar
          </CharString>
          <CharString index="320">
            rmoveto
            103 75 30 70 64 hvcurveto
            284 vlineto
            -75 -75 -71 -34 -93 -126 -115 117 -156 hhcurveto
            -103 -75 -30 -70 -64 hvcurveto
            -284 vlineto
            76 75 70 34 93 126 116 -118 156 hhcurveto
            -452 vmoveto
            103 75 30 70 64 hvcurveto
            284 vlineto
            -76 -75 -71 -34 -93 -126 -115 118 -156 hhcurveto
            -103 -75 -30 -70 -64 hvcurveto
            -284 vlineto
            75 75 70 34 93 126 116 -117 156 hhcurveto
            endchar
          </CharString>
          <CharString index="321">
            rmoveto
            103 74 30 70 65 hvcurveto
            284 vlineto
            -75 -76 -70 -34 -93 -126 -115 117 -157 hhcurveto
            -103 -74 -30 -70 -65 hvcurveto
            -284 vlineto
            76 76 70 34 93 126 115 -118 157 hhcurveto
            -452 vmoveto
            103 74 30 70 65 hvcurveto
            284 vlineto
            -76 -76 -70 -34 -93 -126 -115 118 -157 hhcurveto
            -103 -74 -30 -70 -65 hvcurveto
            -284 vlineto
            75 76 70 34 93 126 115 -117 157 hhcurveto
            endchar
          </CharString>
          <CharString index="322">
            205 hmoveto
            272 hlineto
            36 383 138 0 -36 -383 272 0 36 383 rlineto
            213 269 -187 hlineto
            16 176 rlineto
            171 269 -146 hlineto
            36 383 -272 0 -36 -383 -138 0 36 383 -272 0 -36 -383 rlineto
            -213 -269 188 hlineto
            -17 -176 rlineto
            -171 -269 146 hlineto
            297 269 rmoveto
            17 176 138 0 -16 -176 rlineto
            endchar
          </CharString>
          <CharString index="323">
            663 -20 rmoveto
            305 203 -12 callgsubr
            -246 -96 -96 -26 -48 -71 hvcurveto
            269 11 120 118 237 hhcurveto
            99 85 -13 -28 85 hvcurveto
            285 vlineto
            30 -79 -101 11 -103 hhcurveto
            -443 -268 -254 -550 -513 231 -203 331 hvcurveto
            -14 656 rmoveto
            114 78 -58 -135 -134 -76 -60 -99 -119 -78 67 260 -10 hvcurveto
            42 57 67 18 66 hhcurveto
            endchar
          </CharString>
          <CharString index="324">
            68 hmoveto
            597 237 hlineto
            -158 171 -63 152 230 vvcurveto
            286 108 125 189 192 109 -125 -286 -230 -64 -152 -158 -171 vhcurveto
            -237 598 291 -211 vlineto
            135 130 76 181 212 vvcurveto
            449 -269 237 -408 -404 -269 -237 -449 -212 75 -181 135 -130 vhcurveto
            -210 hlineto
            endchar
          </CharString>
          <CharString index="325">
            61 hmoveto
            501 237 hlineto
            -104 171 -30 148 234 vvcurveto
            309 63 101 123 127 63 -101 -309 -234 -31 -148 -104 -171 vhcurveto
            -237 501 291 -180 vlineto
            109 130 61 181 212 vvcurveto
            455 -199 231 -347 -344 -199 -231 -455 -212 61 -181 109 -130 vhcurveto
            -180 hlineto
            endchar
          </CharString>
          <CharString index="326">
            274 -1766 rmoveto
            280 149 108 187 126 -65 82 -125 27 hvcurveto
            100 30 59 -48 callgsubr
            -64 vhcurveto
            -209 vlineto
            23 62 85 13 70 hhcurveto
            113 45 -31 -62 -59 -40 -37 -105 hvcurveto
            -153 -213 168 hlineto
            118 45 -34 -69 -70 -49 -35 -125 -74 -94 11 21 -78 hvcurveto
            -210 vlineto
            -20 82 89 -11 88 hhcurveto
            endchar
          </CharString>
          <CharString index="327">
            31 54 23 48 hhcurveto
            62 40 -32 -100 hvcurveto
            -670 353 707 vlineto
            16 -1 15 -1 14 vhcurveto
            33 34 47 17 43 hhcurveto
            62 46 -32 -100 hvcurveto
            -670 359 690 vlineto
            311 -149 114 -199 -111 -110 -44 -93 -81 vhcurveto
            97 -58 -95 40 -108 hhcurveto
            -122 -94 -44 -84 -71 hvcurveto
            -16 hlineto
            -25 110 rlineto
            -297 hlineto
            return
          </CharString>
          <CharString index="328">
            -249 -98 -98 -26 -48 -71 hvcurveto
            269 10 122 118 241 hhcurveto
            100 86 -13 -28 86 hvcurveto
            285 vlineto
            30 -80 -101 11 -106 hhcurveto
            -448 -268 -254 -550 -513 231 -203 335 hvcurveto
            -14 656 rmoveto
            116 80 -58 -135 -134 -77 -60 -102 -120 -81 67 260 -10 hvcurveto
            42 58 return
          </CharString>
          <CharString index="329">
            1905 rmoveto
            85 59 10 52 75 hvcurveto
            155 vlineto
            -49 -84 -54 -17 -77 -93 -93 60 -117 hhcurveto
            -85 -58 -11 -52 -76 hvcurveto
            -156 vlineto
            49 84 54 18 77 93 94 -59 116 hhcurveto
            -150 -313 56 callsubr
            -31 callgsubr
            -63 callgsubr
            121 -104 224 hhcurveto
            endchar
          </CharString>
          <CharString index="330">
            1607 rmoveto
            91 61 19 45 54 hvcurveto
            183 vlineto
            -43 -62 -56 -21 -83 -115 -93 70 -137 hhcurveto
            -91 -61 -21 -45 -54 hvcurveto
            -183 vlineto
            43 62 56 21 83 115 93 -68 137 hhcurveto
            -544 -379 rmoveto
            253 hlineto
            121 79 callgsubr
            return
          </CharString>
          <CharString index="331">
            359 hlineto
            99 366 448 0 27 -366 rlineto
            933 301 -599 hlineto
            -25 304 rlineto
            511 301 -536 hlineto
            -22 273 rlineto
            661 301 -1435 hlineto
            256 -301 rmoveto
            169 hlineto
            38 -512 rlineto
            -345 hlineto
            endchar
          </CharString>
          <CharString index="332">
            355 hlineto
            70 269 365 0 22 -269 rlineto
            833 272 -509 hlineto
            -17 196 rlineto
            427 272 -451 hlineto
            -15 178 rlineto
            557 272 -1298 hlineto
            256 -272 rmoveto
            142 hlineto
            31 -377 rlineto
            -272 hlineto
            endchar
          </CharString>
          <CharString index="333">
            215 108 114 -15 -27 86 vhcurveto
            300 vlineto
            25 -88 -120 17 -130 hhcurveto
            -411 -203 -175 -289 -231 139 -135 228 -65 hvcurveto
            251 callsubr
            -169 -129 -148 25 38 -117 vhcurveto
            -300 vlineto
            return
          </CharString>
          <CharString index="334">
            470 568 rmoveto
            240 163 -62 callgsubr
            97 -568 rmoveto
            288 hlineto
            640 1480 rlineto
            -288 hlineto
            -737 -687 rmoveto
            -70 -50 55 186 186 50 54 70 69 50 -54 -186 -186 -50 -55 -69 hvcurveto
            return
          </CharString>
          <CharString index="335">
            -20 17 35 vvcurveto
            44 37 42 156 94 89 -12 -21 79 vhcurveto
            271 vlineto
            19 -78 -97 13 -103 hhcurveto
            -339 -168 88 callgsubr
            50 -11 19 -18 -40 vvcurveto
            -50 -39 -32 -117 -116 -114 18 31 -96 vhcurveto
            -271 vlineto
            return
          </CharString>
          <CharString index="336">
            -65 vhcurveto
            -209 vlineto
            23 62 86 13 70 hhcurveto
            112 45 -31 -62 -59 -40 -37 -104 hvcurveto
            -153 -213 167 hlineto
            118 45 -34 -69 -70 -48 -35 -126 -73 -95 11 21 -77 hvcurveto
            -210 vlineto
            -20 81 89 -11 88 hhcurveto
            return
          </CharString>
          <CharString index="337">
            rmoveto
            84 59 10 52 75 hvcurveto
            155 vlineto
            -49 -83 -54 -17 -78 -92 -94 60 -117 hhcurveto
            -84 -59 -11 -52 -75 hvcurveto
            -156 vlineto
            49 83 55 18 77 93 93 -59 117 hhcurveto
            -150 -313 -28 callgsubr
            return
          </CharString>
          <CharString index="338">
            555 vlineto
            89 34 55 75 125 vvcurveto
            45 -4 43 -14 43 vhcurveto
            -238 hlineto
            10 -44 2 -36 -32 vvcurveto
            -95 -47 -31 -92 vhcurveto
            -117 -717 hlineto
            56 callgsubr
            -351 172 -173 374 vhcurveto
            return
          </CharString>
          <CharString index="339">
            150 238 rlineto
            -232 hlineto
            -8 -477 rmoveto
            224 121 104 162 23 hvcurveto
            -184 hlineto
            -76 -25 -41 -42 -118 hhcurveto
            -119 -41 42 76 -63 callgsubr
            121 -104 225 hhcurveto
            endchar
          </CharString>
          <CharString index="340">
            678 113 hmoveto
            341 955 hlineto
            307 -738 291 0 307 767 rlineto
            -984 341 1480 -449 vlineto
            -338 -871 -351 871 rlineto
            -449 hlineto
            return
          </CharString>
          <CharString index="341">
            509 115 hmoveto
            334 704 hlineto
            233 -526 280 0 233 553 rlineto
            -731 334 1190 -440 vlineto
            -261 -644 -274 644 rlineto
            -439 hlineto
            return
          </CharString>
          <CharString index="342">
            -78 37 -176 -63 -92 -8 -14 -52 vhcurveto
            -113 vlineto
            13 54 67 6 57 hhcurveto
            68 29 -10 -21 -36 -142 -2 -8 -107 hvcurveto
            -586 -372 -2 callsubr
            12 callsubr
            return
          </CharString>
          <CharString index="343">
            152 109 hmoveto
            366 592 108 hlineto
            371 -592 393 0 -476 765 436 715 -381 0 -341 -561 rlineto
            -110 561 -366 hlineto
            return
          </CharString>
          <CharString index="344">
            123 89 80 140 123 -77 80 -114 15 hvcurveto
            11 107 38 105 58 124 rrcurveto
            -205 hlineto
            -103 -135 -68 -184 -169 vvcurveto
            -190 82 -96 166 vhcurveto
            return
          </CharString>
          <CharString index="345">
            -350 167 -188 304 -54 hvcurveto
            -177 -8 callgsubr
            -51 -70 170 callsubr
            200 91 callsubr
            67 vlineto
            -1 9 10 0 9 hhcurveto
            endchar
          </CharString>
          <CharString index="346">
            457 hmoveto
            317 hlineto
            400 740 -400 740 -317 0 -399 -740 rlineto
            339 hmoveto
            219 420 219 -420 -219 -420 rlineto
            endchar
          </CharString>
          <CharString index="347">
            457 hmoveto
            317 hlineto
            400 549 -400 548 -317 0 -399 -548 rlineto
            347 hmoveto
            211 294 211 -294 -211 -295 rlineto
            endchar
          </CharString>
          <CharString index="348">
            23 111 hmoveto
            364 453 69 hlineto
            283 -453 389 0 -382 616 349 574 -376 0 -263 -431 rlineto
            -69 431 -364 hlineto
            return
          </CharString>
          <CharString index="349">
            -124 hhcurveto
            -86 -60 -11 -52 -74 hvcurveto
            -156 vlineto
            49 83 55 18 78 99 96 -59 125 hhcurveto
            -536 -315 rmoveto
            255 hlineto
            -78 callsubr
            152 return
          </CharString>
          <CharString index="350">
            -20 rmoveto
            370 199 181 249 164 -61 116 -185 95 hvcurveto
            154 88 55 120 129 vvcurveto
            234 -195 144 -322 -363 return
          </CharString>
          <CharString index="351">
            hvcurveto
            275 vlineto
            -20 -90 -90 -13 -83 hhcurveto
            -204 -66 47 140 -9 hvcurveto
            600 97 hlineto
            371 -157 204 -305 -322 -177 -204 -359 return
          </CharString>
          <CharString index="352">
            rmoveto
            104 74 30 70 64 107 callgsubr
            -156 hhcurveto
            -105 -73 -31 -70 -64 hvcurveto
            -280 vlineto
            77 76 70 32 92 126 116 -117 156 hhcurveto
            endchar
          </CharString>
          <CharString index="353">
            rmoveto
            104 73 30 70 65 107 callgsubr
            -157 hhcurveto
            -104 -73 -31 -70 -65 hvcurveto
            -280 vlineto
            77 77 70 32 92 126 115 -117 157 hhcurveto
            endchar
          </CharString>
          <CharString index="354">
            -452 rmoveto
            73 51 14 18 46 hvcurveto
            139 vlineto
            -20 96 callgsubr
            -100 79 rlineto
            -245 -87 -76 -99 -129 vvcurveto
            -132 91 -84 178 vhcurveto
            endchar
          </CharString>
          <CharString index="355">
            -190 -109 122 346 -69 callgsubr
            80 callgsubr
            endchar
          </CharString>
          <CharString index="356">
            486 707 rlineto
            192 -942 -17 callgsubr
            return
          </CharString>
          <CharString index="357">
            139 vlineto
            -19 -52 -44 -8 -38 hhcurveto
            -95 -40 35 61 73 return
          </CharString>
          <CharString index="358">
            116 -35 rlineto
            145 -43 38 -37 -71 vvcurveto
            -86 -62 -53 return
          </CharString>
          <CharString index="359">
            111 -815 rmoveto
            156 588 157 -588 rlineto
            return
          </CharString>
          <CharString index="360">
            111 hmoveto
            873 291 -509 899 -364 hlineto
            return
          </CharString>
          <CharString index="361">
            55 18 79 98 96 -59 125 hhcurveto
            -535 -315 rmoveto
            return
          </CharString>
          <CharString index="362">
            19 45 53 hvcurveto
            183 vlineto
            -43 -62 -56 -21 -82 -116 return
          </CharString>
          <CharString index="363">
            7 214 1704 rmoveto
            714 222 -714 hlineto
            return
          </CharString>
          <CharString index="364">
            0 -217 177 66 0 -109 -177 -67 rlineto
            endchar
          </CharString>
          <CharString index="365">
            -8 -14 -51 vhcurveto
            -113 vlineto
            13 53 67 6 57 hhcurveto
            68 return
          </CharString>
          <CharString index="366">
            57 callsubr
            2 95 vvcurveto
            84 -81 40 -181 -66 return
          </CharString>
        <CharString name=".notdef">
          -135 100 -440 rmoveto
          800 2056 -800 -2056 hlineto
          100 100 rmoveto
          1856 600 -1856 -600 vlineto
          endchar
        </CharString>
        <CharString name="A">
          252 3 hmoveto
          24 callsubr
          359 0 36 callsubr
          252 callsubr
          endchar
        </CharString>
        <CharString name="AE">
          797 3 hmoveto
          224 callsubr
        </CharString>
        <CharString name="AEacute">
          797 836 47 callsubr
          -1002 -1900 rmoveto
          224 callsubr
        </CharString>
        <CharString name="Aacute">
          252 531 -102 callsubr
          -85 callsubr
          -698 -1900 -93 callsubr
        </CharString>
        <CharString name="Abreve">
          252 693 1592 rmoveto
          229 127 -11 callgsubr
          -13 -50 42 callgsubr
          -690 -1592 -93 callsubr
        </CharString>
        <CharString name="Acircumflex">
          252 316 1590 -52 callsubr
          181 123 -181 -105 callgsubr
          -539 -1900 -93 callsubr
        </CharString>
        <CharString name="Adieresis">
          252 946 1586 rmoveto
          30 callsubr
          -73 callsubr
          -88 callsubr
          41 callsubr
          42 callsubr
          -437 -1586 -93 callsubr
        </CharString>
        <CharString name="Agrave">
          252 532 -102 callsubr
          -72 callgsubr
          -307 -1900 -93 callsubr
        </CharString>
        <CharString name="Amacron">
          252 319 90 callsubr
          -316 -1857 -93 callsubr
        </CharString>
        <CharString name="Aogonek">
          252 3 hmoveto
          24 callsubr
          rlineto
          78 203 callsubr
          53 vhcurveto
          250 callsubr
          45 70 193 70 hvcurveto
          36 callsubr
          252 callsubr
          endchar
        </CharString>
        <CharString name="Aring">
          252 694 1551 -15 callsubr
          -62 callsubr
          126 vmoveto
          -51 -35 35 54 54 35 35 51 50 35 -35 -54 -54 -35 -35 -50 hvcurveto
          -691 -1677 -93 callsubr
        </CharString>
        <CharString name="Aringacute">
          252 694 1551 rmoveto
          128 94 90 125 39 -10 36 -16 30 hvcurveto
          205 234 -267 0 -99 -126 rlineto
          2 -12 -11 0 -12 hhcurveto
          -62 callsubr
          126 vmoveto
          -51 -35 35 54 55 35 34 51 50 35 -34 -55 -54 -35 -35 -50 hvcurveto
          -691 -1677 -93 callsubr
        </CharString>
        <CharString name="Atilde">
          252 865 81 callsubr
          -54 hvcurveto
          -211 vlineto
          49 63 55 24 84 116 93 -78 139 hhcurveto
          -862 -1601 -93 callsubr
        </CharString>
        <CharString name="B">
          155 525 -19 rmoveto
          522 204 154 282 200 -109 111 -158 35 hvcurveto
          141 43 85 124 154 vvcurveto
          283 -195 132 -435 -156 -179 -21 -30 -136 vhcurveto
          -1435 vlineto
          -19 124 172 -13 120 hhcurveto
          109 1246 51 callgsubr
          52 5 62 hhcurveto
          -8 -973 rmoveto
          -51 -47 1 6 -62 hvcurveto
          353 197 vlineto
          176 72 -54 -125 -126 -71 -55 -214 hvcurveto
          endchar
        </CharString>
        <CharString name="C">
          39 818 -20 rmoveto
          -23 callsubr
          95 callsubr
        </CharString>
        <CharString name="CR">
          -663 endchar
        </CharString>
        <CharString name="Cacute">
          39 560 -102 callsubr
          -74 callsubr
          88 -1920 rmoveto
          -23 callsubr
          95 callsubr
        </CharString>
        <CharString name="Ccaron">
          39 570 -54 callsubr
          -80 callsubr
          -57 callsubr
          474 -1920 rmoveto
          -23 callsubr
          95 callsubr
        </CharString>
        <CharString name="Ccedilla">
          39 681 -452 rmoveto
          62 callsubr
          63 vlineto
          -1 11 10 0 11 hhcurveto
          -23 callsubr
          53 callgsubr
        </CharString>
        <CharString name="Ccircumflex">
          39 344 -70 callsubr
          -67 callsubr
          248 -1920 rmoveto
          -23 callsubr
          95 callsubr
        </CharString>
        <CharString name="Cdotaccent">
          39 722 1586 -107 callsubr
          -91 callsubr
          96 -1606 rmoveto
          -23 callsubr
          95 callsubr
        </CharString>
        <CharString name="D">
          287 -4 callsubr
          18 callsubr
          endchar
        </CharString>
        <CharString name="Dcaron">
          287 493 -54 callsubr
          -80 callsubr
          -36 callsubr
          238 -1917 137 callsubr
          18 callsubr
          endchar
        </CharString>
        <CharString name="Dcroat">
          287 -4 callsubr
          -567 -107 -238 107 -638 202 callsubr
          356 232 238 -232 306 vlineto
          8 36 53 5 38 hhcurveto
          77 callgsubr
          endchar
        </CharString>
        <CharString name="E">
          60 109 hmoveto
          112 callsubr
          endchar
        </CharString>
        <CharString name="Eacute">
          60 476 47 callsubr
          -536 -1900 -90 callsubr
        </CharString>
        <CharString name="Ebreve">
          60 638 -47 callgsubr
          75 callsubr
          -529 -1592 -90 callsubr
        </CharString>
        <CharString name="Ecaron">
          60 486 -54 callsubr
          -80 callsubr
          -36 callsubr
          -151 -1900 -90 callsubr
        </CharString>
        <CharString name="Ecircumflex">
          60 260 -70 callsubr
          -66 callsubr
          -377 -1900 -90 callsubr
        </CharString>
        <CharString name="Edieresis">
          60 890 1586 rmoveto
          30 callsubr
          -73 callsubr
          -506 hmoveto
          30 callsubr
          -73 callsubr
          -275 -1586 -90 callsubr
        </CharString>
        <CharString name="Edotaccent">
          60 637 1586 -61 callsubr
          -141 -91 callsubr
          -528 -1586 -90 callsubr
        </CharString>
        <CharString name="Egrave">
          60 476 -102 callsubr
          109 callsubr
          -145 -1900 -90 callsubr
        </CharString>
        <CharString name="Emacron">
          60 263 1635 rmoveto
          749 222 -749 hlineto
          -154 -1857 -90 callsubr
        </CharString>
        <CharString name="Eng">
          331 1085 -474 rmoveto
          201 216 71 199 287 vvcurveto
          1252 -343 -897 vlineto
          -539 897 rlineto
          -366 -1480 343 901 hlineto
          545 -913 -22 -112 -46 -92 -79 -103 rlinecurve
          endchar
        </CharString>
        <CharString name="Eogonek">
          60 109 hmoveto
          741 203 callsubr
          54 vhcurveto
          139 vlineto
          -19 -53 -44 -8 -38 hhcurveto
          -95 -39 35 61 73 44 70 193 70 hvcurveto
          197 callsubr
          vlineto
          endchar
        </CharString>
        <CharString name="Eth">
          287 -4 callsubr
          -567 -107 -238 107 -638 202 callsubr
          356 232 238 -232 306 vlineto
          8 36 53 5 38 hhcurveto
          77 callgsubr
          endchar
        </CharString>
        <CharString name="Euro">
          193 54 481 rmoveto
          194 hlineto
          -350 79 256 -151 389 hhcurveto
          111 119 18 29 85 hvcurveto
          299 vlineto
          -28 -95 -92 -17 -84 hhcurveto
          -196 -125 54 146 -59 hvcurveto
          474 214 -513 hlineto
          -1 15 0 15 15 vvcurveto
          23 1 21 1 21 vhcurveto
          512 214 -462 hlineto
          128 64 124 52 186 hhcurveto
          93 87 -11 -19 85 hvcurveto
          298 vlineto
          22 -92 -101 11 -103 hhcurveto
          -385 -258 -159 -322 -90 hvcurveto
          -204 -214 170 hlineto
          -1 -22 -1 -23 -24 -14 1 -13 -14 vvcurveto
          -169 hlineto
          endchar
        </CharString>
        <CharString name="Euro.tf">
          96 52 481 rmoveto
          193 hlineto
          -353 76 247 -148 338 hhcurveto
          97 110 18 29 79 hvcurveto
          299 vlineto
          -28 -84 -81 -17 -71 hhcurveto
          -175 -107 50 150 -49 hvcurveto
          400 214 -432 hlineto
          15 0 15 15 vvcurveto
          23 0 21 1 21 vhcurveto
          431 214 -390 hlineto
          132 54 107 48 165 hhcurveto
          81 77 -11 -19 73 hvcurveto
          298 vlineto
          22 -83 -94 11 -92 hhcurveto
          -334 -248 -155 -326 -87 hvcurveto
          -202 -214 170 hlineto
          -2 -22 0 -23 -24 -14 0 -14 -13 vvcurveto
          -168 hlineto
          endchar
        </CharString>
        <CharString name="F">
          12 109 hmoveto
          366 561 545 306 -545 307 645 306 -1011 hlineto
          endchar
        </CharString>
        <CharString name="G">
          221 894 -19 -22 callsubr
        </CharString>
        <CharString name="Gbreve">
          221 780 -47 callgsubr
          75 callsubr
          114 -1611 -22 callsubr
        </CharString>
        <CharString name="Gcaron">
          221 628 -54 callsubr
          -80 callsubr
          -36 callsubr
          492 -1919 -22 callsubr
        </CharString>
        <CharString name="Gcircumflex">
          221 402 -70 callsubr
          -66 callsubr
          266 -1919 -22 callsubr
        </CharString>
        <CharString name="Gdotaccent">
          221 779 1586 -107 callsubr
          -91 callsubr
          115 -1605 -22 callsubr
        </CharString>
        <CharString name="H">
          160 callsubr
          164 callsubr
          endchar
        </CharString>
        <CharString name="Hbar">
          160 callsubr
          1085 108 224 -108 171 -366 -171 -500 171 -366 -171 -107 -224 107 hlineto
          366 -165 rmoveto
          165 500 -165 vlineto
          endchar
        </CharString>
        <CharString name="Hcircumflex">
          316 349 -70 callsubr
          -66 callsubr
          -466 -1900 rmoveto
          366 592 500 -592 366 164 callsubr
          endchar
        </CharString>
        <CharString name="I">
          -551 109 hmoveto
          366 1480 -366 hlineto
          endchar
        </CharString>
        <CharString name="I_J.loclNLD">
          34 109 hmoveto
          366 1480 -366 hlineto
          -1 callgsubr
        </CharString>
        <CharString name="Iacute">
          -551 130 -102 callsubr
          -85 callsubr
          -191 -79 callgsubr
        </CharString>
        <CharString name="Iacute_J.loclNLD">
          34 130 -102 callsubr
          -85 callsubr
          415 -310 -11 callsubr
          -776 -1900 rmoveto
          366 1480 -366 hlineto
          -1 callgsubr
        </CharString>
        <CharString name="Ibreve">
          -551 292 1592 rmoveto
          229 128 114 190 20 183 callsubr
          -183 -1592 -48 callsubr
        </CharString>
        <CharString name="Icircumflex">
          -551 -85 -70 callsubr
          -66 callsubr
          -32 -79 callgsubr
        </CharString>
        <CharString name="Idieresis">
          -551 545 1586 rmoveto
          30 callsubr
          -73 callsubr
          -88 callsubr
          41 callsubr
          42 callsubr
          70 -1586 -48 callsubr
        </CharString>
        <CharString name="Idotaccent">
          -551 292 1586 -107 callsubr
          -91 callsubr
          -183 -1586 -48 callsubr
        </CharString>
        <CharString name="Igrave">
          -551 131 -102 callsubr
          -72 callgsubr
          200 -79 callgsubr
        </CharString>
        <CharString name="Imacron">
          -551 -82 90 callsubr
          191 -1857 -48 callsubr
        </CharString>
        <CharString name="Iogonek">
          -551 109 hmoveto
          85 203 callsubr
          53 vhcurveto
          250 callsubr
          45 70 193 70 hvcurveto
          1480 -366 vlineto
          endchar
        </CharString>
        <CharString name="Itilde">
          -551 464 81 callsubr
          -53 hvcurveto
          -211 vlineto
          49 62 56 24 83 116 93 -78 139 hhcurveto
          -355 -1601 -48 callsubr
        </CharString>
        <CharString name="J">
          -551 200 -350 -20 callgsubr
          -34 51 callsubr
        </CharString>
        <CharString name="Jcircumflex">
          -551 -85 -70 callsubr
          -67 callsubr
          59 -2250 -20 callgsubr
          -34 51 callsubr
        </CharString>
        <CharString name="K">
          236 callsubr
          endchar
        </CharString>
        <CharString name="L">
          -39 109 hmoveto
          176 callsubr
          endchar
        </CharString>
        <CharString name="Lacute">
          -39 136 47 callsubr
          -196 -1900 rmoveto
          176 callsubr
          endchar
        </CharString>
        <CharString name="Lcaron">
          -39 690 85 callgsubr
          -240 hlineto
          -199 -7 -125 -23 -152 vhcurveto
          -581 -1140 rmoveto
          176 callsubr
          endchar
        </CharString>
        <CharString name="Ldot">
          -39 109 hmoveto
          176 callsubr
          724 -784 -19 callsubr
          28 callsubr
          endchar
        </CharString>
        <CharString name="Lslash">
          -15 134 hmoveto
          980 313 -614 487 hlineto
          293 153 0 270 -293 -152 rlineto
          409 -366 -599 vlineto
          -130 -67 0 -271 130 67 rlineto
          endchar
        </CharString>
        <CharString name="M">
          233 callsubr
          endchar
        </CharString>
        <CharString name="N">
          159 callsubr
          endchar
        </CharString>
        <CharString name="NULL">
          endchar
        </CharString>
        <CharString name="Nacute">
          331 571 -102 callsubr
          -85 callsubr
          -632 -1900 rmoveto
          -49 callsubr
          -40 callsubr
          endchar
        </CharString>
        <CharString name="Ncaron">
          331 581 1590 rmoveto
          303 hlineto
          226 310 158 callsubr
          -247 -1900 rmoveto
          -49 callsubr
          -40 callsubr
          endchar
        </CharString>
        <CharString name="Ntilde">
          331 904 1601 rmoveto
          92 -31 callsubr
          -63 -55 -24 -83 -117 -30 callsubr
          11 callsubr
          -795 -1601 rmoveto
          -49 callsubr
          -40 callsubr
          endchar
        </CharString>
        <CharString name="O">
          350 743 -20 -94 callsubr
        </CharString>
        <CharString name="OE">
          859 874 -11 rmoveto
          95 116 11 92 hhcurveto
          754 301 -633 304 520 301 -520 273 623 301 -745 hlineto
          -93 -105 11 -99 hhcurveto
          -516 -295 -233 -518 -519 269 -232 537 hvcurveto
          -64 299 rmoveto
          -237 -130 115 336 335 128 117 237 37 43 -1 -3 49 hvcurveto
          -895 vlineto
          -3 -47 -41 -1 -39 hhcurveto
          endchar
        </CharString>
        <CharString name="Oacute">
          350 581 -102 callsubr
          -74 callsubr
          -8 -1920 -94 callsubr
        </CharString>
        <CharString name="Obreve">
          350 743 1592 -34 callsubr
          80 callsubr
          -1612 vmoveto
          -28 callsubr
          -38 callsubr
          -40 callgsubr
          endchar
        </CharString>
        <CharString name="Ocircumflex">
          350 365 -70 callsubr
          -67 callsubr
          152 -1920 -94 callsubr
        </CharString>
        <CharString name="Odieresis">
          350 996 1586 rmoveto
          -71 callsubr
          -88 callsubr
          -63 callsubr
          253 -1606 -94 callsubr
        </CharString>
        <CharString name="Ograve">
          350 582 -102 callsubr
          60 callsubr
          -1920 -94 callsubr
        </CharString>
        <CharString name="Ohorn">
          350 743 -20 63 callsubr
        </CharString>
        <CharString name="Ohungarumlaut">
          350 818 1590 105 callsubr
          -547 -310 rmoveto
          270 hlineto
          -27 callsubr
          217 -1920 -94 callsubr
        </CharString>
        <CharString name="Omacron">
          350 369 90 callsubr
          374 -1877 -94 callsubr
        </CharString>
        <CharString name="Oslash">
          350 322 -5 207 callsubr
        </CharString>
        <CharString name="Oslashacute">
          350 581 -102 callsubr
          -85 callsubr
          -429 -1905 207 callsubr
        </CharString>
        <CharString name="Otilde">
          350 914 1601 -77 callsubr
          -46 callsubr
          -171 -1621 -94 callsubr
        </CharString>
        <CharString name="P">
          136 109 hmoveto
          366 413 hlineto
          -1 40 32 -2 43 hhcurveto
          404 218 186 358 378 -220 167 -436 -163 -147 -19 -28 -137 hvcurveto
          485 -760 rmoveto
          -46 -34 3 5 -39 hvcurveto
          507 vlineto
          7 36 32 2 48 hhcurveto
          181 85 -78 -187 -187 -85 -72 -178 hvcurveto
          endchar
        </CharString>
        <CharString name="Q">
          350 1332 -339 rmoveto
          65 291 -136 17 -134 26 -146 44 rlinecurve
          287 73 150 249 379 vvcurveto
          523 -270 237 -405 -405 -270 -236 -528 -552 292 -357 972 -166 vhcurveto
          -589 618 rmoveto
          -191 -108 121 347 -69 callgsubr
          80 callgsubr
          endchar
        </CharString>
        <CharString name="R">
          192 109 hmoveto
          64 callsubr
        </CharString>
        <CharString name="Racute">
          192 490 -102 callsubr
          -74 callsubr
          -551 -1900 rmoveto
          64 callsubr
        </CharString>
        <CharString name="Rcaron">
          192 500 -54 callsubr
          -80 callsubr
          -57 callsubr
          -165 -1900 rmoveto
          64 callsubr
        </CharString>
        <CharString name="S">
          -29 477 -20 127 callsubr
          endchar
        </CharString>
        <CharString name="Sacute">
          -29 402 -102 callsubr
          -85 callsubr
          -95 -1920 127 callsubr
          endchar
        </CharString>
        <CharString name="Scaron">
          -29 413 -54 callsubr
          225 310 158 callsubr
          290 -1920 127 callsubr
          endchar
        </CharString>
        <CharString name="Scedilla">
          -29 522 -452 rmoveto
          62 callsubr
          73 vlineto
          281 43 160 167 247 vvcurveto
          234 -136 132 -255 72 108 callgsubr
          226 callsubr
          109 -38 140 -22 128 -3 rrcurveto
          -157 46 vlineto
          76 41 -22 -48 -49 -39 -18 -76 -51 -69 9 20 -58 hvcurveto
          -138 vlineto
          -18 56 66 -11 75 hhcurveto
          endchar
        </CharString>
        <CharString name="Scircumflex">
          -29 187 1590 -52 callsubr
          181 123 -181 -105 callgsubr
          64 -1920 127 callsubr
          endchar
        </CharString>
        <CharString name="T">
          133 callsubr
          endchar
        </CharString>
        <CharString name="Tbar">
          107 437 hmoveto
          367 595 272 237 -272 335 -25 callgsubr
          -335 -270 -237 270 hlineto
          endchar
        </CharString>
        <CharString name="Tcaron">
          107 470 -54 callsubr
          -80 callsubr
          -36 callsubr
          193 -1900 rmoveto
          367 1167 -25 callgsubr
          hlineto
          endchar
        </CharString>
        <CharString name="Thorn">
          146 109 hmoveto
          366 219 hlineto
          -1 40 34 -2 45 hhcurveto
          402 216 184 360 378 -219 167 -432 -29 -33 -3 -1 -24 hvcurveto
          179 -366 vlineto
          485 -981 rmoveto
          -46 -34 2 4 -39 hvcurveto
          508 vlineto
          7 36 32 3 48 hhcurveto
          181 85 -79 -187 -187 -85 -71 -178 hvcurveto
          endchar
        </CharString>
        <CharString name="U">
          286 715 -20 -69 callsubr
          -86 callsubr
          -82 callsubr
        </CharString>
        <CharString name="Uacute">
          286 553 -102 callsubr
          -74 callsubr
          -8 -7 callsubr
          -86 callsubr
          -82 callsubr
        </CharString>
        <CharString name="Ubreve">
          286 715 1592 -34 callsubr
          80 callsubr
          -1612 vmoveto
          -91 callgsubr
          -86 callsubr
          -82 callsubr
        </CharString>
        <CharString name="Ucircumflex">
          286 337 -70 callsubr
          -67 callsubr
          152 -7 callsubr
          -86 callsubr
          -82 callsubr
        </CharString>
        <CharString name="Udieresis">
          286 968 1586 rmoveto
          -71 callsubr
          -88 callsubr
          -63 callsubr
          253 -1606 -69 callsubr
          -86 callsubr
          -82 callsubr
        </CharString>
        <CharString name="Ugrave">
          286 554 -102 callsubr
          60 callsubr
          -7 callsubr
          -86 callsubr
          -82 callsubr
        </CharString>
        <CharString name="Uhorn">
          293 715 -20 -69 callsubr
          71 callsubr
        </CharString>
        <CharString name="Uhungarumlaut">
          286 790 1590 105 callsubr
          -547 -310 rmoveto
          270 hlineto
          -27 callsubr
          217 -7 callsubr
          -86 callsubr
          -82 callsubr
        </CharString>
        <CharString name="Umacron">
          286 341 90 callsubr
          374 -1877 -69 callsubr
          -86 callsubr
          -82 callsubr
        </CharString>
        <CharString name="Uogonek">
          286 799 -452 rmoveto
          73 57 12 19 53 hvcurveto
          140 vlineto
          -20 -52 -44 -8 -38 hhcurveto
          -95 -40 36 60 75 44 79 229 77 hvcurveto
          226 76 106 193 324 vvcurveto
          -86 callsubr
          -410 172 -197 368 -22 vhcurveto
          -96 -63 -37 -71 -84 vvcurveto
          -132 93 -84 196 vhcurveto
          endchar
        </CharString>
        <CharString name="Uring">
          286 715 1576 -15 callsubr
          -62 callsubr
          200 callsubr
          -1722 vmoveto
          -91 callgsubr
          -86 callsubr
          -82 callsubr
        </CharString>
        <CharString name="Utilde">
          286 886 1601 -77 callsubr
          -116 -93 169 callsubr
          -171 -1621 -69 callsubr
          -86 callsubr
          -82 callsubr
        </CharString>
        <CharString name="V">
          230 407 hmoveto
          550 hlineto
          416 1480 -353 0 -328 -1196 -322 1196 rlineto
          -379 hlineto
          endchar
        </CharString>
        <CharString name="W">
          1031 364 hmoveto
          15 callsubr
          72 callsubr
        </CharString>
        <CharString name="Wacute">
          1031 921 -102 callsubr
          -85 callsubr
          -727 -1900 rmoveto
          15 callsubr
          72 callsubr
        </CharString>
        <CharString name="Wcircumflex">
          1031 706 1590 -52 callsubr
          181 123 -181 -24 callgsubr
          -567 -1900 rmoveto
          15 callsubr
          72 callsubr
        </CharString>
        <CharString name="Wdieresis">
          1031 1336 1586 rmoveto
          30 callsubr
          -73 callsubr
          -88 callsubr
          -63 callsubr
          -466 -1586 rmoveto
          15 callsubr
          72 callsubr
        </CharString>
        <CharString name="Wgrave">
          1031 922 -102 callsubr
          -73 callgsubr
          -335 -1900 rmoveto
          15 callsubr
          72 callsubr
        </CharString>
        <CharString name="X">
          201 -44 hmoveto
          399 hlineto
          311 496 309 -496 399 0 -494 775 449 705 -394 0 -267 -425 -268 425 -403 0 456 -708 rlineto
          endchar
        </CharString>
        <CharString name="Y">
          107 439 hmoveto
          8 callgsubr
        </CharString>
        <CharString name="Yacute">
          107 461 47 callsubr
          -191 -1900 rmoveto
          8 callgsubr
        </CharString>
        <CharString name="Ycircumflex">
          107 245 -70 callsubr
          -66 callsubr
          -32 -1900 rmoveto
          8 callgsubr
        </CharString>
        <CharString name="Ydieresis">
          107 875 1586 rmoveto
          30 callsubr
          -73 callsubr
          -506 hmoveto
          30 callsubr
          -73 callsubr
          70 -1586 rmoveto
          8 callgsubr
        </CharString>
        <CharString name="Ygrave">
          107 461 -102 callsubr
          109 callsubr
          200 -1900 rmoveto
          8 callgsubr
        </CharString>
        <CharString name="Z">
          45 47 hmoveto
          175 callsubr
        </CharString>
        <CharString name="Zacute">
          45 430 -102 callsubr
          -74 callsubr
          -553 -1900 rmoveto
          175 callsubr
        </CharString>
        <CharString name="Zcaron">
          45 440 -54 callsubr
          -80 callsubr
          -57 callsubr
          -167 -1900 rmoveto
          175 callsubr
        </CharString>
        <CharString name="Zdotaccent">
          45 592 1586 -107 callsubr
          -91 callsubr
          -545 -1586 rmoveto
          175 callsubr
        </CharString>
        <CharString name="a">
          -67 382 -21 -96 callsubr
        </CharString>
        <CharString name="a.sc">
          94 5 hmoveto
          25 callsubr
          78 callsubr
          endchar
        </CharString>
        <CharString name="aacute">
          -67 371 -41 callgsubr
          -203 -1637 -96 callsubr
        </CharString>
        <CharString name="aacute.sc">
          94 452 -97 callsubr
          -85 callsubr
          -617 -1610 -95 callsubr
        </CharString>
        <CharString name="abreve">
          -67 531 128 callsubr
          -149 -1257 -96 callsubr
        </CharString>
        <CharString name="abreve.sc">
          94 614 1302 rmoveto
          229 128 114 190 20 183 callsubr
          -609 -1302 -95 callsubr
        </CharString>
        <CharString name="acircumflex">
          -67 170 -81 callsubr
          102 callsubr
          -1 -1637 -96 callsubr
        </CharString>
        <CharString name="acircumflex.sc">
          94 237 -58 callsubr
          -66 callsubr
          -458 -1610 -95 callsubr
        </CharString>
        <CharString name="acute">
          24 419 -101 callsubr
          -76 callsubr
          endchar
        </CharString>
        <CharString name="acutecomb">
          419 -101 callsubr
          -76 callsubr
          endchar
        </CharString>
        <CharString name="acutecomb.case">
          418 -102 callsubr
          -88 callgsubr
        </CharString>
        <CharString name="acutecomb.sc">
          418 -102 callsubr
          -88 callgsubr
        </CharString>
        <CharString name="adieresis">
          -67 774 27 callsubr
          -65 callsubr
          -75 callsubr
          -45 callsubr
          -65 callsubr
          94 -1258 -96 callsubr
        </CharString>
        <CharString name="adieresis.sc">
          94 867 146 callsubr
          -73 callsubr
          -88 callsubr
          41 callsubr
          42 callsubr
          -356 -1296 -95 callsubr
        </CharString>
        <CharString name="ae">
          478 417 -21 204 callsubr
        </CharString>
        <CharString name="ae.sc">
          580 5 hmoveto
          225 callsubr
        </CharString>
        <CharString name="aeacute">
          478 648 -41 callgsubr
          -445 -1637 204 callsubr
        </CharString>
        <CharString name="aeacute.sc">
          580 726 -97 callsubr
          -74 callsubr
          -891 -1610 rmoveto
          225 callsubr
        </CharString>
        <CharString name="agrave">
          -67 371 -101 callsubr
          -56 callsubr
          276 -1637 -96 callsubr
        </CharString>
        <CharString name="agrave.sc">
          94 453 -97 callsubr
          -72 callgsubr
          -226 -1610 -95 callsubr
        </CharString>
        <CharString name="amacron">
          -67 174 -106 callgsubr
          208 -1551 -96 callsubr
        </CharString>
        <CharString name="amacron.sc">
          94 240 26 callsubr
          -235 -1567 -95 callsubr
        </CharString>
        <CharString name="ampersand">
          419 656 -18 rmoveto
          203 165 54 108 115 hvcurveto
          237 -164 178 273 -255 176 rlineto
          15 64 8 71 77 vvcurveto
          74 -11 90 -19 81 vhcurveto
          -290 hlineto
          19 -81 12 -92 -75 vvcurveto
          -9 0 -8 -1 -8 vhcurveto
          -339 234 rlineto
          -88 64 -33 49 71 vvcurveto
          105 72 64 215 73 85 -10 -13 67 vhcurveto
          299 vlineto
          14 -76 -82 10 -98 hhcurveto
          -421 -201 -177 -289 -93 23 -86 70 -89 hvcurveto
          -125 -63 -92 -128 -169 vvcurveto
          -258 196 -166 378 vhcurveto
          -211 466 rmoveto
          58 16 47 28 40 vhcurveto
          8 -6 9 -6 9 -7 392 -270 rcurveline
          -43 -56 -72 -17 -80 hhcurveto
          -161 -93 75 129 hvcurveto
          endchar
        </CharString>
        <CharString name="ampersand.sc">
          231 568 -14 rmoveto
          176 142 43 82 101 hvcurveto
          209 -130 170 261 -218 135 rlineto
          12 51 6 55 60 vvcurveto
          57 -9 70 -15 65 vhcurveto
          -278 hlineto
          16 -65 9 -71 -60 vvcurveto
          -2 vlineto
          -288 177 rlineto
          -59 42 -17 24 39 vvcurveto
          65 55 40 175 60 77 -8 -11 57 vhcurveto
          282 vlineto
          13 -71 -73 6 -83 hhcurveto
          -368 -192 -139 -247 -76 23 -68 55 -67 hvcurveto
          -107 -51 -72 -105 -127 vvcurveto
          -214 179 -126 328 vhcurveto
          -163 380 rmoveto
          33 8 29 17 27 vhcurveto
          1 -1 321 -198 rlineto
          -20 -39 -47 -9 -54 hhcurveto
          -143 -64 54 85 hvcurveto
          endchar
        </CharString>
        <CharString name="aogonek">
          -67 382 -21 rmoveto
          110 94 37 93 57 hvcurveto
          15 hlineto
          42 -112 rlineto
          -107 -67 -37 -76 -90 -59 callgsubr
          96 callgsubr
          645 vlineto
          351 -150 119 -348 -108 -133 -15 -27 -105 vhcurveto
          -276 vlineto
          27 91 105 13 81 hhcurveto
          163 54 -44 -127 hvcurveto
          -133 -9 rlineto
          -319 -20 -130 -123 -212 vvcurveto
          -194 130 -129 207 vhcurveto
          14 361 rmoveto
          71 43 42 96 6 vhcurveto
          92 7 rlineto
          -187 vlineto
          -34 -36 -44 -11 -40 hhcurveto
          -69 -42 36 70 hvcurveto
          endchar
        </CharString>
        <CharString name="aogonek.sc">
          94 5 hmoveto
          25 callsubr
          rlineto
          74 hlineto
          -116 -68 -43 -77 -91 vvcurveto
          -133 92 -83 197 73 56 12 19 54 vhcurveto
          139 vlineto
          -19 -52 -45 -8 -38 hhcurveto
          -95 -39 35 -65 callgsubr
          -340 1190 rlineto
          -541 hlineto
          153 -650 rmoveto
          114 442 116 -442 rlineto
          endchar
        </CharString>
        <CharString name="approxequal">
          -64 733 790 214 callsubr
        </CharString>
        <CharString name="approxequal.osf">
          -64 733 590 214 callsubr
        </CharString>
        <CharString name="approxequal.tf">
          96 813 790 213 callsubr
        </CharString>
        <CharString name="approxequal.tosf">
          96 813 590 213 callsubr
        </CharString>
        <CharString name="aring">
          -67 531 1220 68 callgsubr
          199 callsubr
          -149 -1368 -96 callsubr
        </CharString>
        <CharString name="aring.sc">
          94 614 1286 68 callgsubr
          200 callsubr
          -609 -1412 -95 callsubr
        </CharString>
        <CharString name="aringacute">
          -67 531 1220 rmoveto
          129 93 90 125 40 -9 37 -18 31 hvcurveto
          205 237 -266 0 -101 -132 rlineto
          2 -11 -11 0 -11 hhcurveto
          168 callsubr
          199 callsubr
          -149 -1368 -96 callsubr
        </CharString>
        <CharString name="aringacute.sc">
          94 614 1286 rmoveto
          129 93 90 125 39 -9 -21 callgsubr
          -100 -125 rlineto
          1 -11 -12 1 -12 hhcurveto
          168 callsubr
          126 vmoveto
          -50 -35 34 55 54 35 35 50 50 35 -35 -54 -55 -35 -34 -50 hvcurveto
          -609 -1412 -95 callsubr
        </CharString>
        <CharString name="arrowdown">
          269 702 146 rmoveto
          606 606 -170 170 -297 -298 rlineto
          750 -277 -750 vlineto
          -298 298 -170 -170 rlineto
          endchar
        </CharString>
        <CharString name="arrowleft">
          285 702 154 rmoveto
          170 170 -298 298 rlineto
          750 277 -750 hlineto
          298 297 -170 170 -606 -606 rlineto
          endchar
        </CharString>
        <CharString name="arrowright">
          285 718 154 rmoveto
          606 606 -606 606 -170 -170 298 -297 rlineto
          -750 -277 750 hlineto
          -298 -298 rlineto
          endchar
        </CharString>
        <CharString name="arrowup">
          269 564 146 rmoveto
          277 750 hlineto
          297 -298 170 170 -606 606 -606 -606 170 -170 298 298 rlineto
          endchar
        </CharString>
        <CharString name="asciicircum">
          96 16 callgsubr
        </CharString>
        <CharString name="asciicircum.osf">
          96 17 callgsubr
        </CharString>
        <CharString name="asciicircum.tf">
          96 16 callgsubr
        </CharString>
        <CharString name="asciicircum.tosf">
          96 17 callgsubr
        </CharString>
        <CharString name="asciitilde">
          -64 733 565 246 callsubr
        </CharString>
        <CharString name="asciitilde.osf">
          -64 733 365 246 callsubr
        </CharString>
        <CharString name="asciitilde.tf">
          96 813 565 245 callsubr
        </CharString>
        <CharString name="asciitilde.tosf">
          96 813 365 245 callsubr
        </CharString>
        <CharString name="asterisk">
          -123 638 1124 rmoveto
          193 21 151 49 -75 230 -151 -50 -170 -99 41 193 rlineto
          148 -241 -148 vlineto
          41 -193 -171 99 -151 50 -75 -230 151 -49 193 -21 -145 -130 -88 -121 196 -142 87 121 82 186 82 -186 87 -121 196 142 -88 121 rlineto
          endchar
        </CharString>
        <CharString name="at">
          904 1064 -460 rmoveto
          152 148 19 35 143 hvcurveto
          235 vlineto
          -36 -148 -144 -19 -151 hhcurveto
          -505 -216 198 549 547 216 196 470 470 216 -189 -499 3 hvcurveto
          -293 2 -58 -64 -82 hhcurveto
          -52 -31 31 77 hvcurveto
          312 vlineto
          339 -150 120 -341 -110 -130 -19 -33 -102 vhcurveto
          -3 -276 rlineto
          33 89 104 17 84 hhcurveto
          152 54 -42 -113 3 hvcurveto
          -134 -10 rlineto
          -318 -21 -130 -120 -212 vvcurveto
          -194 130 -129 207 112 105 38 114 42 vhcurveto
          18 hlineto
          -103 63 108 -49 153 hhcurveto
          274 194 162 443 1 hvcurveto
          614 -341 300 -602 -603 -358 -300 -678 -679 359 -301 637 vhcurveto
          -148 803 rmoveto
          74 45 39 92 7 vhcurveto
          94 7 rlineto
          -188 vlineto
          -33 -34 -50 -12 -36 hhcurveto
          -65 -46 34 72 hvcurveto
          endchar
        </CharString>
        <CharString name="atilde">
          -67 689 -6 callsubr
          54 115 callsubr
          -76 86 callsubr
          -307 -1287 -96 callsubr
        </CharString>
        <CharString name="atilde.sc">
          94 786 1311 rmoveto
          91 -31 callsubr
          -62 -56 -24 -83 -117 -30 callsubr
          -54 hvcurveto
          -211 vlineto
          49 63 56 24 83 116 93 -78 139 hhcurveto
          -781 -1311 -95 callsubr
        </CharString>
        <CharString name="b">
          37 513 -20 rmoveto
          415 -1 191 208 381 vvcurveto
          381 -184 166 -212 -111 -86 -46 -79 -53 vhcurveto
          -17 626 -359 -1573 hlineto
          -43 123 154 -20 139 hhcurveto
          30 271 rmoveto
          -31 -31 5 6 -25 hvcurveto
          518 vlineto
          25 32 45 13 42 hhcurveto
          111 69 -56 -224 -216 -72 -71 -140 hvcurveto
          endchar
        </CharString>
        <CharString name="b.sc">
          34 502 -17 rmoveto
          446 180 128 228 163 -96 83 -123 28 hvcurveto
          109 33 76 97 123 vvcurveto
          232 -174 109 -385 -135 -167 -19 -26 -122 vhcurveto
          -1151 vlineto
          -17 109 160 -11 122 hhcurveto
          84 979 rmoveto
          122 49 -33 -83 -81 -44 -33 -126 hvcurveto
          -128 220 hlineto
          7 46 40 3 41 hhcurveto
          -1 -735 rmoveto
          -39 -35 2 4 -52 hvcurveto
          249 152 vlineto
          128 56 -34 -91 -92 -54 -38 -156 hvcurveto
          endchar
        </CharString>
        <CharString name="backslash">
          -358 427 -240 rmoveto
          350 hlineto
          -427 1856 rlineto
          -350 hlineto
          endchar
        </CharString>
        <CharString name="bar">
          -596 109 -440 rmoveto
          320 2056 -320 hlineto
          endchar
        </CharString>
        <CharString name="bar.tf">
          96 456 -440 rmoveto
          320 2056 -320 hlineto
          endchar
        </CharString>
        <CharString name="braceleft">
          -398 587 -460 rmoveto
          70 58 6 7 51 hvcurveto
          273 -116 vlineto
          -80 -41 32 77 hvcurveto
          424 vlineto
          139 -53 93 -134 40 vhcurveto
          134 39 53 93 139 vvcurveto
          339 vlineto
          77 41 32 80 vhcurveto
          116 273 hlineto
          7 -51 -58 6 -70 hhcurveto
          -277 -141 -136 -254 hvcurveto
          -360 99 callgsubr
          -444 vlineto
          -255 141 -136 277 vhcurveto
          endchar
        </CharString>
        <CharString name="braceleft.sc">
          -402 584 -260 rmoveto
          69 59 6 7 51 hvcurveto
          273 -119 vlineto
          -76 -41 32 74 hvcurveto
          231 vlineto
          139 -53 93 -133 40 vhcurveto
          133 39 53 93 139 vvcurveto
          202 vlineto
          74 41 32 76 vhcurveto
          119 273 hlineto
          7 -51 -59 6 -69 hhcurveto
          -274 -141 -136 -251 hvcurveto
          -223 99 callgsubr
          -252 vlineto
          -251 141 -136 274 vhcurveto
          endchar
        </CharString>
        <CharString name="braceright">
          -398 150 -460 rmoveto
          277 140 136 255 hvcurveto
          444 98 callgsubr
          360 vlineto
          254 -140 136 -277 -70 -58 -6 -7 -52 vhcurveto
          -273 117 vlineto
          80 41 -32 -77 hvcurveto
          -339 vlineto
          -139 55 -93 133 -39 vhcurveto
          -133 -40 -55 -93 -139 vvcurveto
          -424 vlineto
          -77 -41 -32 -80 vhcurveto
          -117 -273 hlineto
          -7 52 58 -6 70 hhcurveto
          endchar
        </CharString>
        <CharString name="braceright.sc">
          -402 150 -260 rmoveto
          273 141 136 251 hvcurveto
          252 98 callgsubr
          223 vlineto
          251 -141 136 -273 -70 -58 -6 -7 -52 vhcurveto
          -273 119 vlineto
          76 42 -32 -74 hvcurveto
          -202 vlineto
          -139 52 -93 133 -39 vhcurveto
          -133 -40 -52 -93 -139 vvcurveto
          -231 vlineto
          -74 -42 -32 -76 vhcurveto
          -119 -273 hlineto
          -7 52 58 -6 70 hhcurveto
          endchar
        </CharString>
        <CharString name="bracketleft">
          -438 129 -440 rmoveto
          593 281 -233 1494 237 281 -597 hlineto
          endchar
        </CharString>
        <CharString name="bracketleft.sc">
          -446 129 -241 rmoveto
          585 281 -227 1160 231 281 -589 hlineto
          endchar
        </CharString>
        <CharString name="bracketright">
          -438 -25 -440 rmoveto
          592 2056 -597 -281 238 -1494 -233 hlineto
          endchar
        </CharString>
        <CharString name="bracketright.sc">
          -446 -25 -240 rmoveto
          585 1720 -590 -281 232 -1158 -227 hlineto
          endchar
        </CharString>
        <CharString name="breve">
          24 580 2 callsubr
          endchar
        </CharString>
        <CharString name="brokenbar">
          -596 109 40 callgsubr
        </CharString>
        <CharString name="brokenbar.tf">
          96 456 40 callgsubr
        </CharString>
        <CharString name="bullet">
          -378 379 228 rmoveto
          186 145 140 192 193 -145 139 -186 -186 -146 -139 -193 -192 146 -140 186 hvcurveto
          endchar
        </CharString>
        <CharString name="c">
          -226 606 -21 77 callsubr
        </CharString>
        <CharString name="c.sc">
          -88 735 -16 -24 callsubr
          96 callsubr
        </CharString>
        <CharString name="cacute">
          -226 339 -101 callsubr
          -76 callsubr
          52 -1637 77 callsubr
        </CharString>
        <CharString name="cacute.sc">
          -88 484 108 callsubr
          82 -1626 -24 callsubr
          96 callsubr
        </CharString>
        <CharString name="caron">
          24 431 -5 callsubr
          -114 29 callsubr
          endchar
        </CharString>
        <CharString name="caron.alt">
          24 549 1180 -19 callgsubr
        </CharString>
        <CharString name="ccaron">
          -226 351 1226 rmoveto
          297 hlineto
          214 390 -248 0 -114 29 callsubr
          468 -1637 77 callsubr
        </CharString>
        <CharString name="ccaron.sc">
          -88 494 1 callsubr
          -80 callsubr
          -36 callsubr
          467 -1626 -24 callsubr
          96 callsubr
        </CharString>
        <CharString name="ccedilla">
          -226 509 -452 rmoveto
          185 82 -22 callgsubr
          87 1 89 13 74 24 rrcurveto
          149 callsubr
          191 callsubr
          55 callgsubr
        </CharString>
        <CharString name="ccedilla.sc">
          -88 735 -16 -24 callsubr
          238 callsubr
        </CharString>
        <CharString name="ccircumflex">
          -226 138 -81 callsubr
          115 226 114 -226 -14 callsubr
          255 -1637 77 callsubr
        </CharString>
        <CharString name="ccircumflex.sc">
          -88 268 -58 callsubr
          -66 callsubr
          241 -1626 -24 callsubr
          96 callsubr
        </CharString>
        <CharString name="cdotaccent">
          -226 500 49 callsubr
          106 -1251 77 callsubr
        </CharString>
        <CharString name="cdotaccent.sc">
          -88 645 1296 -61 callsubr
          -141 -91 callsubr
          90 -1312 -24 callsubr
          96 callsubr
        </CharString>
        <CharString name="cedilla">
          24 571 10 callgsubr
        </CharString>
        <CharString name="cent">
          -223 422 -240 rmoveto
          303 226 hlineto
          50 7 48 10 43 14 rrcurveto
          149 callsubr
          191 55 55 -6 -9 57 hvcurveto
          286 vlineto
          -45 10 -47 6 -49 3 rrcurveto
          225 -303 -247 vlineto
          -233 -61 -135 -174 -309 vvcurveto
          -313 129 -178 239 -57 vhcurveto
          endchar
        </CharString>
        <CharString name="cent.tf">
          96 602 -240 rmoveto
          302 223 hlineto
          85 7 76 16 59 21 rrcurveto
          287 vlineto
          -30 -128 -79 -12 -91 hhcurveto
          -224 -114 93 181 180 105 96 257 94 80 -11 -17 100 hvcurveto
          285 vlineto
          -67 18 -73 11 -80 5 rrcurveto
          222 -302 -238 vlineto
          -320 -58 -166 -193 -301 vvcurveto
          -305 168 -192 318 -54 vhcurveto
          endchar
        </CharString>
        <CharString name="circumflex">
          24 218 -81 callsubr
          16 callsubr
        </CharString>
        <CharString name="colon">
          2 callgsubr
          -694 vmoveto
          -32 callsubr
          88 -141 -140 -90 -85 -15 callgsubr
        </CharString>
        <CharString name="colon.tf">
          20 callgsubr
          -694 vmoveto
          137 93 88 -23 callgsubr
          -85 -16 callgsubr
        </CharString>
        <CharString name="colonmonetary">
          39 818 -20 rmoveto
          109 119 18 29 86 hvcurveto
          303 vlineto
          -28 -95 -92 -17 -83 hhcurveto
          -281 -130 117 338 331 136 124 280 92 88 -11 -19 85 hvcurveto
          302 vlineto
          -22 6 -22 4 -23 4 rrcurveto
          67 239 -209 0 -62 -220 rlineto
          -8 -9 0 -8 hhcurveto
          -27 -27 -1 -2 -26 hvcurveto
          63 223 -209 0 -73 -259 rlineto
          -302 -89 -167 -240 -396 vvcurveto
          -217 45 -166 87 -121 vhcurveto
          -130 -472 209 0 89 321 28 -17 31 -14 32 -13 rlinecurve
          -76 -277 209 0 63 230 rlineto
          -7 52 54 -3 57 hhcurveto
          endchar
        </CharString>
        <CharString name="colonmonetary.tf">
          96 99 -240 rmoveto
          209 hlineto
          87 320 29 -17 30 -14 33 -12 rlinecurve
          -75 -277 209 0 62 230 rlineto
          -7 50 52 -3 55 hhcurveto
          109 118 18 29 85 hvcurveto
          303 vlineto
          -28 -95 -91 -17 -81 hhcurveto
          -276 -129 117 338 331 134 124 277 90 86 -11 -19 85 hvcurveto
          302 vlineto
          -22 6 -22 4 -22 4 rrcurveto
          66 239 -210 0 -60 -220 rlineto
          -8 -8 0 -8 hhcurveto
          -27 -27 -1 -2 -26 hvcurveto
          61 223 -209 0 -72 -260 rlineto
          -296 -90 -165 -239 -395 vvcurveto
          -217 45 -166 85 -120 vhcurveto
          endchar
        </CharString>
        <CharString name="comma">
          -580 131 -352 rmoveto
          -35 callsubr
          154 callsubr
        </CharString>
        <CharString name="comma.tf">
          -519 161 -350 rmoveto
          206 hlineto
          102 134 68 183 169 vvcurveto
          190 -82 97 -153 100 callgsubr
          -106 -38 -105 -58 -123 rrcurveto
          endchar
        </CharString>
        <CharString name="copyright">
          499 817 -22 rmoveto
          451 298 304 458 458 -298 304 -451 -451 -298 -304 -458 -458 298 -304 451 hvcurveto
          192 vmoveto
          -347 -201 219 351 351 201 219 347 347 201 -219 -351 -351 -201 -219 -347 hvcurveto
          65 154 rmoveto
          82 72 12 20 52 hvcurveto
          225 vlineto
          -20 -79 -46 -7 -56 hhcurveto
          -123 -71 62 117 118 65 63 142 58 50 -7 -11 60 hvcurveto
          225 vlineto
          15 -57 -62 8 -73 hhcurveto
          -278 -173 -151 -261 -260 171 -148 266 hvcurveto
          endchar
        </CharString>
        <CharString name="currency">
          96 206 callsubr
        </CharString>
        <CharString name="currency.tf">
          96 206 callsubr
        </CharString>
        <CharString name="d">
          37 -41 callsubr
          4 callsubr
          73 callsubr
          endchar
        </CharString>
        <CharString name="d.sc">
          99 callsubr
          17 callsubr
          100 callsubr
          650 8 callsubr
        </CharString>
        <CharString name="dagger">
          -105 421 160 rmoveto
          187 hlineto
          30 220 0 605 -30 152 220 -28 rlineto
          153 241 -153 hlineto
          -220 -28 30 152 rlineto
          142 -246 -142 vlineto
          29 -152 -220 28 rlineto
          -152 -241 152 hlineto
          220 28 -29 -152 rlineto
          -605 vlineto
          endchar
        </CharString>
        <CharString name="daggerdbl">
          -105 392 160 rmoveto
          245 142 hlineto
          65 callgsubr
          154 0 192 65 callgsubr
          152 rlineto
          142 -245 -142 vlineto
          29 -152 72 callgsubr
          0 -192 29 -154 72 callgsubr
          rlineto
          endchar
        </CharString>
        <CharString name="dcaron">
          37 -41 callsubr
          4 callsubr
          658 1201 rmoveto
          195 hlineto
          47 201 callsubr
          -543 -904 188 callsubr
        </CharString>
        <CharString name="dcaron.sc">
          151 443 1 callsubr
          -80 callsubr
          -36 callsubr
          255 -1625 138 callsubr
          17 callsubr
          100 callsubr
          650 8 callsubr
        </CharString>
        <CharString name="dcroat">
          37 -41 callsubr
          -4 callgsubr
          -385 197 -162 224 hvcurveto
          73 callsubr
          endchar
        </CharString>
        <CharString name="dcroat.sc">
          99 callsubr
          -445 -110 -215 110 -497 109 callgsubr
          233 174 215 -174 202 8 callsubr
        </CharString>
        <CharString name="degree">
          -196 469 747 rmoveto
          221 162 159 218 218 -162 157 -221 -220 -162 -157 -218 -218 162 -159 220 hvcurveto
          209 vmoveto
          -91 -68 64 104 105 70 62 89 90 70 -62 -105 -104 -69 -64 -91 hvcurveto
          endchar
        </CharString>
        <CharString name="degree.tf">
          96 616 747 rmoveto
          220 162 159 218 218 -162 157 -220 -221 -162 -157 -218 -218 162 -159 221 hvcurveto
          209 vmoveto
          -91 -69 64 104 105 70 62 90 89 70 -62 -105 -104 -68 -64 -91 hvcurveto
          endchar
        </CharString>
        <CharString name="dieresis">
          24 823 27 callsubr
          -51 callsubr
          -75 callsubr
          -45 callsubr
          -51 callsubr
          endchar
        </CharString>
        <CharString name="divide">
          -64 535 970 rmoveto
          123 84 78 119 118 -80 79 -127 -126 -80 -75 -122 -123 84 -74 122 hvcurveto
          -439 -348 rmoveto
          879 276 -879 hlineto
          439 -742 rmoveto
          123 84 78 119 119 -80 78 -127 -126 -80 -75 -122 -122 84 -75 122 hvcurveto
          endchar
        </CharString>
        <CharString name="divide.osf">
          -64 535 743 rmoveto
          123 81 76 100 100 -78 76 -126 -125 -78 -72 -104 -104 81 -72 122 hvcurveto
          -439 -319 rmoveto
          879 255 -879 hlineto
          439 -672 rmoveto
          123 81 76 100 101 -78 76 -126 -125 -78 -73 -104 -103 81 -73 122 hvcurveto
          endchar
        </CharString>
        <CharString name="divide.tf">
          96 616 970 rmoveto
          122 84 78 119 118 -80 79 -126 -127 -80 -75 -122 -123 84 -74 123 hvcurveto
          -439 -348 rmoveto
          878 276 -878 hlineto
          439 -742 rmoveto
          122 84 78 119 119 -80 78 -126 -127 -80 -75 -122 -122 84 -75 123 hvcurveto
          endchar
        </CharString>
        <CharString name="divide.tosf">
          96 616 743 rmoveto
          122 81 76 100 100 -77 76 -126 -126 -78 -72 -104 -104 81 -72 123 hvcurveto
          -439 -319 rmoveto
          878 255 -878 hlineto
          439 -672 rmoveto
          122 81 76 100 101 -77 76 -126 -126 -78 -73 -104 -103 81 -73 123 hvcurveto
          endchar
        </CharString>
        <CharString name="dollar">
          -29 385 -240 rmoveto
          337 253 hlineto
          223 64 123 155 216 vvcurveto
          234 -136 132 -255 72 108 callgsubr
          230 93 114 -14 -23 86 vhcurveto
          300 vlineto
          -74 18 -95 14 -98 4 rrcurveto
          221 -337 -253 vlineto
          -235 -63 -113 -152 -216 vvcurveto
          -231 139 -135 228 -65 vhcurveto
          251 callsubr
          -181 -116 -149 23 36 -117 vhcurveto
          -300 vlineto
          90 -30 112 -19 105 -7 rrcurveto
          endchar
        </CharString>
        <CharString name="dollar.tf">
          96 447 -240 rmoveto
          337 249 hlineto
          248 62 136 157 220 vvcurveto
          237 -147 123 -271 74 vhcurveto
          -127 36 rlineto
          -160 46 -36 29 66 vvcurveto
          80 69 61 259 112 124 -14 -23 92 vhcurveto
          300 vlineto
          -83 19 -107 14 -109 3 rrcurveto
          221 -337 -250 vlineto
          -261 -61 -125 -154 -219 vvcurveto
          -234 150 -128 242 -66 vhcurveto
          127 -35 rlineto
          178 -51 45 -32 -71 vvcurveto
          -86 -70 -53 -205 -138 -159 23 36 -126 vhcurveto
          -300 vlineto
          101 -31 125 -20 116 -6 rrcurveto
          endchar
        </CharString>
        <CharString name="dong">
          37 -41 callsubr
          -4 callgsubr
          -386 197 -161 224 hvcurveto
          73 callsubr
          -459 -689 rmoveto
          944 268 -944 hlineto
          endchar
        </CharString>
        <CharString name="dong.tf">
          96 504 -21 rmoveto
          118 85 54 83 50 hvcurveto
          16 hlineto
          22 -116 rlineto
          303 1236 95 232 -95 148 -359 -148 -283 -232 283 -125 hlineto
          2 -21 -23 2 -24 hhcurveto
          -392 -187 -210 -379 -386 193 -161 219 hvcurveto
          116 297 rmoveto
          -98 -66 55 225 216 69 71 134 24 32 -4 -4 23 hvcurveto
          -514 vlineto
          -30 -29 -46 -15 -43 hhcurveto
          -451 -689 rmoveto
          929 268 -929 hlineto
          endchar
        </CharString>
        <CharString name="dotaccent">
          24 580 1230 189 callsubr
        </CharString>
        <CharString name="dotbelowcomb">
          580 -474 -37 callsubr
          -121 -71 -68 -112 -111 71 -68 121 hvcurveto
          endchar
        </CharString>
        <CharString name="dotbelowcomb.case">
          580 -443 -72 callsubr
        </CharString>
        <CharString name="dotbelowcomb.sc">
          580 -443 -72 callsubr
        </CharString>
        <CharString name="dotlessi">
          -580 97 hmoveto
          -70 callgsubr
        </CharString>
        <CharString name="e">
          -77 645 -21 -98 callsubr
          -92 callsubr
        </CharString>
        <CharString name="e.sc">
          -48 111 hmoveto
          113 callsubr
          endchar
        </CharString>
        <CharString name="eacute">
          -77 384 -101 callsubr
          -76 callsubr
          46 -1637 -98 callsubr
          -92 callsubr
        </CharString>
        <CharString name="eacute.sc">
          -48 420 108 callsubr
          -478 -1610 -89 callsubr
        </CharString>
        <CharString name="ebreve">
          -77 545 2 callsubr
          100 -1257 -98 callsubr
          -92 callsubr
        </CharString>
        <CharString name="ebreve.sc">
          -48 582 110 callgsubr
          75 callsubr
          -471 -1302 -89 callsubr
        </CharString>
        <CharString name="ecaron">
          -77 396 -5 callsubr
          174 callsubr
          462 -1637 -98 callsubr
          -92 callsubr
        </CharString>
        <CharString name="ecaron.sc">
          -48 430 1 callsubr
          -80 callsubr
          -36 callsubr
          -93 -1610 -89 callsubr
        </CharString>
        <CharString name="ecircumflex">
          -77 183 -81 callsubr
          76 callsubr
          249 -1637 -98 callsubr
          -92 callsubr
        </CharString>
        <CharString name="ecircumflex.sc">
          -48 204 -58 callsubr
          -66 callsubr
          -319 -1610 -89 callsubr
        </CharString>
        <CharString name="edieresis">
          -77 787 1237 rmoveto
          121 71 68 114 113 -71 68 -121 -65 callsubr
          -486 hmoveto
          121 70 68 114 113 -70 68 -121 -120 -71 -68 39 callsubr
          344 -1258 -98 callsubr
          -92 callsubr
        </CharString>
        <CharString name="edieresis.sc">
          -48 834 146 callsubr
          -73 callsubr
          -506 hmoveto
          30 callsubr
          -73 callsubr
          -217 -1296 -89 callsubr
        </CharString>
        <CharString name="edotaccent">
          -77 544 1230 rmoveto
          22 callgsubr
          101 -1251 -98 callsubr
          -92 callsubr
        </CharString>
        <CharString name="edotaccent.sc">
          -48 581 1296 -61 callsubr
          -141 -91 callsubr
          -470 -1296 -89 callsubr
        </CharString>
        <CharString name="egrave">
          -77 384 -101 callsubr
          -56 callsubr
          526 -1637 -98 callsubr
          -92 callsubr
        </CharString>
        <CharString name="egrave.sc">
          -48 420 -97 callsubr
          109 callsubr
          -87 -1610 -89 callsubr
        </CharString>
        <CharString name="eight">
          147 644 243 callsubr
          -193 -168 -249 -148 56 28 callgsubr
          -196 1116 rmoveto
          86 68 63 143 133 72 -55 -100 -86 -38 -66 -93 -61 vhcurveto
          -239 76 -46 48 95 vvcurveto
          -41 -687 rmoveto
          79 43 81 94 52 vhcurveto
          10 -3 9 -3 10 -2 rrcurveto
          240 -69 61 -51 -102 vvcurveto
          -97 -71 -59 -158 -161 -77 64 110 vhcurveto
          endchar
        </CharString>
        <CharString name="eight.dnom">
          -295 422 -150 88 callsubr
          123 callsubr
        </CharString>
        <CharString name="eight.numr">
          -295 422 602 88 callsubr
          123 callsubr
        </CharString>
        <CharString name="eight.osf">
          149 646 243 callsubr
          -194 -168 -249 -148 57 28 callgsubr
          -197 1116 rmoveto
          86 69 63 143 133 72 -55 -100 -86 -39 -66 -92 -61 vhcurveto
          -239 76 -47 48 95 vvcurveto
          -40 -687 rmoveto
          79 43 81 94 52 vhcurveto
          9 -3 10 -3 10 -2 rrcurveto
          240 -69 61 -51 -102 vvcurveto
          -97 -72 -59 -157 -161 -77 64 110 vhcurveto
          endchar
        </CharString>
        <CharString name="eight.tf">
          96 205 callsubr
        </CharString>
        <CharString name="eight.tosf">
          96 205 callsubr
        </CharString>
        <CharString name="ellipsis">
          490 277 -19 rmoveto
          -32 callsubr
          88 -141 -140 -90 -85 -136 -137 93 -84 137 hvcurveto
          535 hmoveto
          -32 callsubr
          93 callgsubr
          535 hmoveto
          -32 callsubr
          93 callgsubr
          endchar
        </CharString>
        <CharString name="emacron">
          -77 188 48 callsubr
          457 -1551 -98 callsubr
          -92 callsubr
        </CharString>
        <CharString name="emacron.sc">
          -48 207 1345 rmoveto
          749 222 -749 hlineto
          -96 -1567 -89 callsubr
        </CharString>
        <CharString name="emdash">
          565 446 vmoveto
          1700 246 -1700 hlineto
          endchar
        </CharString>
        <CharString name="endash">
          -285 446 vmoveto
          850 246 -850 hlineto
          endchar
        </CharString>
        <CharString name="eng">
          29 803 -474 rmoveto
          202 216 67 198 1 248 rrcurveto
          505 vlineto
          308 -148 114 -199 -119 -98 -44 -84 -74 vhcurveto
          -16 hlineto
          -25 110 rlineto
          -297 -1097 359 744 hlineto
          42 31 callsubr
          -493 vlineto
          -211 -35 51 callsubr
        </CharString>
        <CharString name="eng.sc">
          198 111 hmoveto
          336 652 hlineto
          436 -677 -9 -119 -32 -85 -75 -98 rlinecurve
          224 -147 185 176 46 167 -1 202 rlinecurve
          1119 -335 -651 vlineto
          -420 651 rlineto
          -355 hlineto
          endchar
        </CharString>
        <CharString name="eogonek">
          -77 786 -452 rmoveto
          73 51 14 18 47 hvcurveto
          139 vlineto
          -20 -47 -40 -8 -35 hhcurveto
          -76 -38 36 59 74 43 80 193 74 244 callsubr
          -399 174 -171 406 -3 vhcurveto
          -86 -61 -30 -72 -82 vvcurveto
          -132 91 -84 177 vhcurveto
          -236 1330 62 callgsubr
        </CharString>
        <CharString name="eogonek.sc">
          -48 111 hmoveto
          629 hlineto
          -116 -68 -43 -77 -91 vvcurveto
          -133 93 -83 196 73 56 12 19 54 vhcurveto
          139 vlineto
          -19 -52 -45 -8 -37 hhcurveto
          -95 -40 35 -65 callgsubr
          198 callsubr
          vlineto
          endchar
        </CharString>
        <CharString name="equal">
          -64 96 850 rmoveto
          879 276 -879 hlineto
          -732 vmoveto
          52 callsubr
        </CharString>
        <CharString name="equal.osf">
          -64 96 650 rmoveto
          879 276 -879 hlineto
          -732 vmoveto
          52 callsubr
        </CharString>
        <CharString name="equal.tf">
          96 177 850 rmoveto
          878 276 -878 hlineto
          -732 vmoveto
          53 callsubr
        </CharString>
        <CharString name="equal.tosf">
          96 177 650 rmoveto
          878 276 -878 hlineto
          -732 vmoveto
          53 callsubr
        </CharString>
        <CharString name="estimated">
          395 764 -18 rmoveto
          253 188 101 269 183 hvcurveto
          -56 38 rlineto
          -249 -169 -170 -95 -229 hhcurveto
          -159 -133 55 106 -102 hvcurveto
          531 1092 vlineto
          466 -22 -272 294 -404 hhcurveto
          -410 -286 -312 -448 -432 298 -324 398 hvcurveto
          -394 820 rmoveto
          470 vlineto
          103 82 153 59 157 hhcurveto
          153 149 -57 -105 93 hvcurveto
          -470 vlineto
          endchar
        </CharString>
        <CharString name="eth">
          7 571 -24 rmoveto
          328 190 187 451 1 hvcurveto
          240 -86 252 -132 209 vhcurveto
          189 37 -42 191 -277 -55 -42 47 -45 43 -46 38 rlinecurve
          -406 hlineto
          75 -60 71 -65 64 -69 rrcurveto
          -284 -56 41 -191 382 76 37 -52 31 -54 27 -55 rlinecurve
          12 -35 -37 6 -35 hhcurveto
          -290 -196 -175 -390 -382 192 -185 325 hvcurveto
          268 vmoveto
          -101 -53 58 241 241 56 60 98 99 55 -60 -245 -235 -53 -60 -101 hvcurveto
          endchar
        </CharString>
        <CharString name="eth.sc">
          99 callsubr
          -445 -110 -215 110 -497 109 callgsubr
          233 174 215 -174 202 8 callsubr
        </CharString>
        <CharString name="exclam">
          -540 190 503 rmoveto
          219 hlineto
          81 479 rlineto
          498 -385 -498 vlineto
          192 -1001 19 callgsubr
        </CharString>
        <CharString name="exclamdown">
          -540 297 1116 rmoveto
          -137 -93 -84 -137 -136 90 -84 140 141 90 87 133 133 -93 88 -138 hvcurveto
          -107 -538 rmoveto
          -85 -470 rlineto
          -488 385 488 vlineto
          -81 470 rlineto
          endchar
        </CharString>
        <CharString name="f">
          -360 -16 callsubr
          80 hlineto
          118 83 callgsubr
          -53 hhcurveto
          -330 -171 -178 -300 hvcurveto
          -61 -158 -280 158 vlineto
          endchar
        </CharString>
        <CharString name="f.sc">
          -92 111 hmoveto
          364 422 451 280 -451 208 539 280 -903 hlineto
          endchar
        </CharString>
        <CharString name="f_i">
          194 -16 callsubr
          3 callsubr
          876 413 139 callsubr
          113 callgsubr
        </CharString>
        <CharString name="f_j">
          194 -16 callsubr
          3 callsubr
          874 413 -19 callsubr
          28 callsubr
          -89 -1704 rmoveto
          201 98 callsubr
          -360 147 callsubr
        </CharString>
        <CharString name="f_l">
          193 -16 callsubr
          3 callsubr
          116 callgsubr
        </CharString>
        <CharString name="fi">
          194 -16 callsubr
          3 callsubr
          876 413 139 callsubr
          113 callgsubr
        </CharString>
        <CharString name="figuredash">
          96 95 446 rmoveto
          1042 246 -1042 hlineto
          endchar
        </CharString>
        <CharString name="five">
          -81 422 -20 rmoveto
          384 210 159 310 hvcurveto
          1 279 -165 146 -395 33 18 283 rcurveline
          485 290 -811 hlineto
          -48 -834 156 -9 rlineto
          337 -21 75 -59 -119 vvcurveto
          -118 -77 -60 -183 -108 -135 19 30 -106 vhcurveto
          -278 vlineto
          -32 111 122 -19 129 hhcurveto
          endchar
        </CharString>
        <CharString name="five.dnom">
          -295 341 -150 122 callsubr
        </CharString>
        <CharString name="five.numr">
          -295 341 602 122 callsubr
        </CharString>
        <CharString name="five.osf">
          -87 415 -420 rmoveto
          381 208 159 317 1 hvcurveto
          284 -164 147 -385 32 vhcurveto
          18 288 rlineto
          485 290 -811 hlineto
          -48 -839 156 -9 rlineto
          325 -20 77 -60 -125 vvcurveto
          -124 -79 -60 -177 -102 -135 19 30 -106 vhcurveto
          -278 vlineto
          -33 111 122 -18 123 hhcurveto
          endchar
        </CharString>
        <CharString name="five.tf">
          96 505 -20 rmoveto
          400 219 159 310 282 -175 146 -421 31 hvcurveto
          19 282 rlineto
          518 290 -843 hlineto
          -50 -834 161 -9 rlineto
          359 -22 85 -58 -119 vvcurveto
          -118 -86 -60 -198 -113 -141 19 30 -110 vhcurveto
          -278 vlineto
          -32 115 128 -19 133 hhcurveto
          endchar
        </CharString>
        <CharString name="five.tosf">
          96 501 -420 rmoveto
          397 217 159 317 1 hvcurveto
          287 -175 147 -412 30 vhcurveto
          19 287 rlineto
          520 290 -844 hlineto
          -51 -839 162 -9 rlineto
          346 -20 88 -60 -125 vvcurveto
          -124 -90 -60 -191 -106 -142 19 30 -110 vhcurveto
          -278 vlineto
          -34 115 129 -17 127 hhcurveto
          endchar
        </CharString>
        <CharString name="fiveeighths">
          909 341 602 rmoveto
          276 152 109 214 1 hvcurveto
          187 -120 98 -266 26 vhcurveto
          10 163 rlineto
          338 217 -586 hlineto
          -34 -575 152 -11 rlineto
          189 -14 48 -33 -70 vvcurveto
          -66 -49 -35 -121 -76 -95 12 21 -75 vhcurveto
          -209 vlineto
          -22 77 88 -12 91 hhcurveto
          148 -738 21 callsubr
          121 callsubr
        </CharString>
        <CharString name="fl">
          193 -16 callsubr
          3 callsubr
          116 callgsubr
        </CharString>
        <CharString name="florin">
          -360 31 -460 rmoveto
          329 171 178 299 hvcurveto
          799 255 281 -255 83 vlineto
          115 83 callgsubr
          -54 hhcurveto
          -329 -171 73 callgsubr
          -58 -55 -144 -32 -29 3 4 -36 vhcurveto
          -281 vlineto
          -8 49 51 -4 54 hhcurveto
          endchar
        </CharString>
        <CharString name="florin.tf">
          96 259 -460 rmoveto
          330 171 178 299 hvcurveto
          799 254 281 -254 83 vlineto
          115 58 55 144 32 28 -3 -4 37 vhcurveto
          281 vlineto
          8 -49 -52 4 -53 hhcurveto
          -329 -172 73 callgsubr
          -57 -55 -145 -31 -29 3 4 -36 vhcurveto
          -281 vlineto
          -8 49 51 -4 53 hhcurveto
          endchar
        </CharString>
        <CharString name="four">
          94 31 293 rmoveto
          670 -293 325 293 175 281 -175 406 -289 hlineto
          -36 -406 -275 0 423 906 -348 0 -470 -985 rlineto
          endchar
        </CharString>
        <CharString name="four.dnom">
          -295 24 53 rmoveto
          436 -189 89 callsubr
          145 callsubr
          endchar
        </CharString>
        <CharString name="four.numr">
          -295 460 616 rmoveto
          89 callsubr
          145 callsubr
          -153 436 vlineto
          endchar
        </CharString>
        <CharString name="four.osf">
          63 29 hmoveto
          657 54 callgsubr
          -262 0 388 816 -349 0 -434 -895 rlineto
          endchar
        </CharString>
        <CharString name="four.tf">
          96 38 293 rmoveto
          658 -293 326 293 175 281 -175 406 -289 hlineto
          -37 -406 -268 0 411 906 -343 0 -458 -985 rlineto
          endchar
        </CharString>
        <CharString name="four.tosf">
          96 51 hmoveto
          645 54 callgsubr
          -251 0 382 816 -348 0 -428 -895 rlineto
          endchar
        </CharString>
        <CharString name="fraction">
          -772 -351 -136 rmoveto
          296 hlineto
          769 1752 rlineto
          -296 hlineto
          endchar
        </CharString>
        <CharString name="franc">
          133 54 192 rmoveto
          177 -192 366 192 285 272 -285 172 545 306 -545 232 645 306 -1011 -1016 -177 hlineto
          endchar
        </CharString>
        <CharString name="franc.tf">
          96 54 192 rmoveto
          177 -192 366 192 253 272 -253 172 499 306 -499 232 599 306 -965 -1016 -177 hlineto
          endchar
        </CharString>
        <CharString name="g">
          37 477 -460 -42 callsubr
        </CharString>
        <CharString name="g.sc">
          66 799 -17 -25 callsubr
        </CharString>
        <CharString name="gbreve">
          37 609 128 callsubr
          -132 -1696 -42 callsubr
        </CharString>
        <CharString name="gbreve.sc">
          66 700 1302 -34 callsubr
          80 callsubr
          99 -1319 -25 callsubr
        </CharString>
        <CharString name="gcaron">
          37 461 -5 callsubr
          -115 29 callsubr
          230 -2076 -42 callsubr
        </CharString>
        <CharString name="gcaron.sc">
          66 548 1 callsubr
          -80 callsubr
          -57 callsubr
          477 -1627 -25 callsubr
        </CharString>
        <CharString name="gcircumflex">
          37 248 -81 callsubr
          102 callsubr
          16 -2076 -42 callsubr
        </CharString>
        <CharString name="gcircumflex.sc">
          66 322 -58 callsubr
          -67 callsubr
          251 -1627 -25 callsubr
        </CharString>
        <CharString name="gdotaccent">
          37 609 49 callsubr
          -132 -1690 -42 callsubr
        </CharString>
        <CharString name="gdotaccent.sc">
          66 700 1296 -107 callsubr
          -91 callsubr
          99 -1313 -25 callsubr
        </CharString>
        <CharString name="germandbls">
          376 18 814 rmoveto
          158 -814 359 1034 hlineto
          239 96 111 206 153 108 -70 -192 vhcurveto
          -6 0 -6 -6 vvcurveto
          -309 -8 -156 -130 -210 vvcurveto
          -182 93 -103 184 -37 vhcurveto
          170 -34 rlineto
          49 -11 20 -18 -40 vvcurveto
          -50 -39 -32 -133 -102 -117 15 25 -91 vhcurveto
          -271 vlineto
          -27 100 114 -12 101 hhcurveto
          316 180 137 226 193 -98 88 -178 38 hvcurveto
          -170 34 rlineto
          -49 12 -21 17 35 vvcurveto
          44 38 42 171 52 49 -3 -6 42 vhcurveto
          22 83 17 91 95 vvcurveto
          378 -227 153 -315 -376 -231 -202 -337 -26 vhcurveto
          -160 hlineto
          endchar
        </CharString>
        <CharString name="germandbls.sc">
          116 1108 1107 rmoveto
          52 -101 -162 47 -205 hhcurveto
          -384 -185 -169 -298 hvcurveto
          -739 366 736 vlineto
          134 57 71 166 50 41 -5 -10 38 vhcurveto
          -220 -251 rlineto
          -188 vlineto
          8 51 41 4 48 hhcurveto
          116 53 -42 -80 -73 -45 -49 -98 -64 -82 15 30 -65 hvcurveto
          -269 vlineto
          -29 71 84 -18 102 hhcurveto
          274 160 151 226 192 -126 120 -184 14 hvcurveto
          203 228 rlineto
          endchar
        </CharString>
        <CharString name="grave">
          24 419 -101 callsubr
          -56 callsubr
          endchar
        </CharString>
        <CharString name="gravecomb">
          419 -101 callsubr
          -56 callsubr
          endchar
        </CharString>
        <CharString name="gravecomb.case">
          419 1590 46 callsubr
          endchar
        </CharString>
        <CharString name="gravecomb.sc">
          419 1590 46 callsubr
          endchar
        </CharString>
        <CharString name="greater">
          -64 96 253 26 callgsubr
        </CharString>
        <CharString name="greater.osf">
          -64 96 53 26 callgsubr
        </CharString>
        <CharString name="greater.tf">
          96 177 253 27 callgsubr
        </CharString>
        <CharString name="greater.tosf">
          96 177 53 27 callgsubr
        </CharString>
        <CharString name="greaterequal">
          -64 96 425 rmoveto
          879 277 0 287 -879 76 callgsubr
          52 callsubr
        </CharString>
        <CharString name="greaterequal.osf">
          -64 96 349 rmoveto
          879 247 0 249 -879 247 0 -248 453 -123 -453 -123 rlineto
          -598 vmoveto
          879 257 -879 hlineto
          endchar
        </CharString>
        <CharString name="greaterequal.tf">
          96 177 425 rmoveto
          878 277 0 287 -878 76 callgsubr
          53 callsubr
        </CharString>
        <CharString name="greaterequal.tosf">
          96 177 349 rmoveto
          878 247 0 249 -878 247 0 -248 452 -123 -452 -123 rlineto
          -598 vmoveto
          878 257 -878 hlineto
          endchar
        </CharString>
        <CharString name="guillemotleft">
          75 29 callgsubr
          749 -438 rmoveto
          360 hlineto
          -223 438 223 437 -360 0 -223 -437 rlineto
          endchar
        </CharString>
        <CharString name="guillemotright">
          75 38 callgsubr
          303 -438 rmoveto
          360 hlineto
          223 438 -223 437 -360 0 223 -437 rlineto
          endchar
        </CharString>
        <CharString name="guilsinglleft">
          -451 29 callgsubr
          endchar
        </CharString>
        <CharString name="guilsinglright">
          -451 38 callgsubr
          endchar
        </CharString>
        <CharString name="h">
          29 55 callsubr
          31 callsubr
          -100 callgsubr
          endchar
        </CharString>
        <CharString name="h.sc">
          161 callsubr
          165 callsubr
          endchar
        </CharString>
        <CharString name="hbar">
          29 55 callsubr
          31 callsubr
          36 callgsubr
          247 286 233 -286 149 -359 -149 -95 -233 95 hlineto
          endchar
        </CharString>
        <CharString name="hbar.sc">
          161 callsubr
          875 111 193 -111 122 -364 -122 -373 122 -364 -122 -110 -193 110 hlineto
          364 -114 rmoveto
          114 373 -114 vlineto
          endchar
        </CharString>
        <CharString name="hcircumflex">
          29 209 1686 -52 callsubr
          181 123 -181 -105 callgsubr
          -338 -1996 rmoveto
          359 737 hlineto
          42 31 callsubr
          -100 callgsubr
          endchar
        </CharString>
        <CharString name="hcircumflex.sc">
          188 285 70 callgsubr
          -75 callgsubr
          -399 -1610 rmoveto
          364 455 373 -455 364 165 callsubr
          endchar
        </CharString>
        <CharString name="hookabovecomb">
          491 19 callsubr
          33 callsubr
          55 53 13 callsubr
          endchar
        </CharString>
        <CharString name="hookabovecomb.case">
          491 -43 callsubr
          -18 callsubr
          -92 callgsubr
          82 callgsubr
        </CharString>
        <CharString name="hookabovecomb.sc">
          491 -43 callsubr
          -18 callsubr
          -92 callgsubr
          82 callgsubr
        </CharString>
        <CharString name="hungarumlaut">
          24 654 -36 callgsubr
          -286 hlineto
          -559 -46 callgsubr
          endchar
        </CharString>
        <CharString name="hyphen">
          -293 -34 callgsubr
        </CharString>
        <CharString name="i">
          125 callsubr
          -70 callgsubr
        </CharString>
        <CharString name="i.loclTRK">
          125 callsubr
          -70 callgsubr
        </CharString>
        <CharString name="i.loclTRK.sc">
          -549 294 1296 -107 callsubr
          -91 callsubr
          -183 -1296 -47 callsubr
        </CharString>
        <CharString name="i.sc">
          -549 111 hmoveto
          364 1190 -364 hlineto
          endchar
        </CharString>
        <CharString name="i_j.loclNLD">
          -26 830 1230 -19 callsubr
          28 callsubr
          -553 hmoveto
          22 callgsubr
          -180 -1230 rmoveto
          361 1097 -361 hlineto
          644 -1571 rmoveto
          201 98 callsubr
          -360 147 callsubr
        </CharString>
        <CharString name="i_j.loclNLD.sc">
          37 111 hmoveto
          364 1190 -364 hlineto
          703 -1474 rmoveto
          184 140 callsubr
        </CharString>
        <CharString name="iacute">
          -580 117 -101 callsubr
          -76 callsubr
          -235 153 callsubr
        </CharString>
        <CharString name="iacute.sc">
          -549 132 -97 callsubr
          -74 callsubr
          -191 -80 callgsubr
        </CharString>
        <CharString name="iacute_j.loclNLD">
          -26 670 1226 rmoveto
          320 hlineto
          -76 callsubr
          -767 -390 rmoveto
          321 hlineto
          -76 callsubr
          -235 -1616 rmoveto
          361 1097 -361 hlineto
          644 -1571 rmoveto
          201 98 callsubr
          -360 147 callsubr
        </CharString>
        <CharString name="iacute_j.loclNLD.sc">
          37 132 -97 callsubr
          -74 callsubr
          416 -310 -11 callsubr
          -777 -1610 rmoveto
          364 1190 -364 hlineto
          703 -1474 rmoveto
          184 140 callsubr
        </CharString>
        <CharString name="ibreve">
          -580 278 2 callsubr
          -181 -1236 rmoveto
          -70 callgsubr
        </CharString>
        <CharString name="ibreve.sc">
          -549 294 1302 -34 callsubr
          80 callsubr
          -183 -1302 -47 callsubr
        </CharString>
        <CharString name="icircumflex">
          -580 -84 -81 callsubr
          76 callsubr
          -32 153 callsubr
        </CharString>
        <CharString name="icircumflex.sc">
          -549 -84 -58 callsubr
          -67 callsubr
          -31 -80 callgsubr
        </CharString>
        <CharString name="idieresis">
          -580 520 1237 rmoveto
          121 71 68 114 113 -71 68 -121 -65 callsubr
          -486 hmoveto
          121 70 68 114 113 -70 68 -121 -120 -71 -68 39 callsubr
          63 -1237 rmoveto
          -70 callgsubr
        </CharString>
        <CharString name="idieresis.sc">
          -549 547 1296 rmoveto
          -71 callsubr
          -88 callsubr
          -63 callsubr
          70 -1296 -47 callsubr
        </CharString>
        <CharString name="igrave">
          -580 117 -101 callsubr
          -56 callsubr
          245 153 callsubr
        </CharString>
        <CharString name="igrave.sc">
          -549 133 -97 callsubr
          -73 callgsubr
          201 -80 callgsubr
        </CharString>
        <CharString name="imacron">
          -580 -79 48 callsubr
          176 -1530 rmoveto
          -70 callgsubr
        </CharString>
        <CharString name="imacron.sc">
          -549 -80 26 callsubr
          191 -1567 -47 callsubr
        </CharString>
        <CharString name="infinity">
          590 451 382 209 callsubr
        </CharString>
        <CharString name="infinity.osf">
          590 451 182 209 callsubr
        </CharString>
        <CharString name="infinity.tf">
          96 323 365 211 callsubr
        </CharString>
        <CharString name="infinity.tosf">
          96 323 165 211 callsubr
        </CharString>
        <CharString name="integral">
          -379 161 -460 rmoveto
          303 214 180 376 -60 hvcurveto
          -131 898 rlineto
          164 -25 71 56 119 hhcurveto
          31 27 -2 -5 36 hvcurveto
          280 vlineto
          9 -47 43 callgsubr
          -70 -56 -120 hhcurveto
          -30 -28 2 5 -35 hvcurveto
          -280 vlineto
          -9 47 50 -4 54 hhcurveto
          endchar
        </CharString>
        <CharString name="integral.tf">
          96 399 -460 rmoveto
          303 214 180 376 -61 hvcurveto
          -130 898 rlineto
          164 -25 70 56 120 hhcurveto
          30 28 -2 -5 35 hvcurveto
          280 vlineto
          9 -46 43 callgsubr
          -71 -56 -119 hhcurveto
          -30 -28 2 5 -35 hvcurveto
          -280 vlineto
          -9 46 51 -4 54 hhcurveto
          endchar
        </CharString>
        <CharString name="iogonek">
          125 callsubr
          88 hlineto
          -110 -68 -38 -77 -91 -59 callgsubr
          66 callgsubr
          -361 vlineto
          endchar
        </CharString>
        <CharString name="iogonek.sc">
          -549 111 hmoveto
          82 hlineto
          -116 -68 -43 -77 -91 vvcurveto
          -133 93 -83 196 73 57 12 19 53 vhcurveto
          250 callsubr
          44 70 194 70 hvcurveto
          1190 -364 vlineto
          endchar
        </CharString>
        <CharString name="itilde">
          -580 435 -6 callsubr
          54 115 callsubr
          -75 -104 25 callgsubr
          -338 -1266 rmoveto
          -70 callgsubr
        </CharString>
        <CharString name="itilde.sc">
          -549 465 1311 -77 callsubr
          -116 -93 169 callsubr
          -354 -1311 -47 callsubr
        </CharString>
        <CharString name="j">
          -580 275 1230 -19 callsubr
          28 callsubr
          -89 -1704 rmoveto
          202 98 callsubr
          -361 147 callsubr
        </CharString>
        <CharString name="j.sc">
          -549 227 -284 rmoveto
          185 140 callsubr
        </CharString>
        <CharString name="jcircumflex">
          -580 -86 -81 callsubr
          114 227 115 -227 -14 callsubr
          59 -2090 rmoveto
          202 98 callsubr
          -361 147 callsubr
        </CharString>
        <CharString name="jcircumflex.sc">
          -549 -84 -58 callsubr
          -67 callsubr
          85 -1894 rmoveto
          185 140 callsubr
        </CharString>
        <CharString name="k">
          184 callsubr
          910 -359 hlineto
          endchar
        </CharString>
        <CharString name="k.sc">
          241 callsubr
          endchar
        </CharString>
        <CharString name="kgreenlandic">
          184 callsubr
          391 -359 hlineto
          endchar
        </CharString>
        <CharString name="l">
          -582 -10 callgsubr
          endchar
        </CharString>
        <CharString name="l.sc">
          61 callsubr
          endchar
        </CharString>
        <CharString name="lacute">
          -582 116 1686 -10 callsubr
          -188 -1996 rmoveto
          359 1616 -359 hlineto
          endchar
        </CharString>
        <CharString name="lacute.sc">
          -142 137 -97 callsubr
          -85 callsubr
          -196 -1610 rmoveto
          873 291 -509 899 -364 hlineto
          endchar
        </CharString>
        <CharString name="lcaron">
          -582 -10 callgsubr
          417 -436 -19 callgsubr
        </CharString>
        <CharString name="lcaron.sc">
          61 callsubr
          521 -476 rmoveto
          195 hlineto
          46 114 28 157 205 vvcurveto
          -239 hlineto
          -199 -7 -125 -23 -152 vhcurveto
          endchar
        </CharString>
        <CharString name="ldot">
          -210 -10 callgsubr
          641 -1011 rmoveto
          23 callgsubr
          endchar
        </CharString>
        <CharString name="ldot.sc">
          61 callsubr
          656 -634 rmoveto
          140 64 65 110 111 -64 65 -140 -141 -64 -65 -111 -110 64 -65 141 hvcurveto
          endchar
        </CharString>
        <CharString name="less">
          -64 975 253 34 callgsubr
        </CharString>
        <CharString name="less.osf">
          -64 975 53 34 callgsubr
        </CharString>
        <CharString name="less.tf">
          96 1055 253 35 callgsubr
        </CharString>
        <CharString name="less.tosf">
          96 1055 53 35 callgsubr
        </CharString>
        <CharString name="lessequal">
          -64 975 74 callgsubr
          -879 -277 rlineto
          -287 vlineto
          -702 vmoveto
          52 callsubr
        </CharString>
        <CharString name="lessequal.osf">
          -64 975 75 callgsubr
          -879 -247 rlineto
          -249 vlineto
          -596 vmoveto
          879 257 -879 hlineto
          endchar
        </CharString>
        <CharString name="lessequal.tf">
          96 1055 74 callgsubr
          -878 -277 rlineto
          -287 vlineto
          -702 vmoveto
          53 callsubr
        </CharString>
        <CharString name="lessequal.tosf">
          96 1055 75 callgsubr
          -878 -247 rlineto
          -249 vlineto
          -596 vmoveto
          878 257 -878 hlineto
          endchar
        </CharString>
        <CharString name="lira">
          143 63 hmoveto
          1169 281 -635 191 419 214 -419 110 419 215 -419 9 hlineto
          129 71 55 231 93 114 -13 -23 86 vhcurveto
          295 vlineto
          22 -88 -117 15 -118 hhcurveto
          -424 -204 -177 -312 84 callgsubr
        </CharString>
        <CharString name="lira.tf">
          96 63 hmoveto
          1159 281 -625 191 409 214 -409 110 409 215 -409 9 hlineto
          129 69 55 236 89 108 -13 -23 83 vhcurveto
          295 vlineto
          22 -85 -114 15 -114 hhcurveto
          -430 -198 -176 -313 84 callgsubr
        </CharString>
        <CharString name="logicalnot">
          151 907 102 callgsubr
        </CharString>
        <CharString name="logicalnot.osf">
          153 909 hmoveto
          288 703 -1101 -277 813 hlineto
          endchar
        </CharString>
        <CharString name="logicalnot.tf">
          96 877 102 callgsubr
        </CharString>
        <CharString name="logicalnot.tosf">
          96 878 hmoveto
          288 703 -1101 -277 813 hlineto
          endchar
        </CharString>
        <CharString name="lozenge">
          96 239 callsubr
        </CharString>
        <CharString name="lozenge.osf">
          96 240 callsubr
        </CharString>
        <CharString name="lozenge.tf">
          96 239 callsubr
        </CharString>
        <CharString name="lozenge.tosf">
          96 240 callsubr
        </CharString>
        <CharString name="lslash">
          -500 138 hmoveto
          359 679 hlineto
          126 64 0 254 -126 -64 rlineto
          683 -359 -867 vlineto
          -123 -63 0 -254 123 63 rlineto
          endchar
        </CharString>
        <CharString name="lslash.sc">
          -142 111 hmoveto
          873 291 -509 356 hlineto
          264 116 0 242 -264 -117 rlineto
          302 -364 -462 vlineto
          -108 -48 1 -241 107 47 rlineto
          endchar
        </CharString>
        <CharString name="m">
          589 55 callsubr
          220 callsubr
          endchar
        </CharString>
        <CharString name="m.sc">
          234 callsubr
          endchar
        </CharString>
        <CharString name="macron">
          24 223 48 callsubr
          endchar
        </CharString>
        <CharString name="minus">
          -64 96 622 rmoveto
          52 callsubr
        </CharString>
        <CharString name="minus.osf">
          -64 96 422 rmoveto
          52 callsubr
        </CharString>
        <CharString name="minus.tf">
          96 177 622 rmoveto
          53 callsubr
        </CharString>
        <CharString name="minus.tosf">
          96 177 422 rmoveto
          53 callsubr
        </CharString>
        <CharString name="minute">
          -670 162 callsubr
          endchar
        </CharString>
        <CharString name="multiply">
          -107 266 317 12 callgsubr
        </CharString>
        <CharString name="multiply.osf">
          -107 266 117 12 callgsubr
        </CharString>
        <CharString name="multiply.tf">
          96 368 317 13 callgsubr
        </CharString>
        <CharString name="multiply.tosf">
          96 368 117 13 callgsubr
        </CharString>
        <CharString name="n">
          29 97 hmoveto
          180 callsubr
          endchar
        </CharString>
        <CharString name="n.sc">
          198 111 hmoveto
          11 callgsubr
          endchar
        </CharString>
        <CharString name="nacute">
          29 426 -51 callgsubr
          -543 -1616 rmoveto
          180 callsubr
          endchar
        </CharString>
        <CharString name="nacute.sc">
          198 504 -97 callsubr
          -85 callsubr
          -563 -1610 rmoveto
          11 callgsubr
          endchar
        </CharString>
        <CharString name="napostrophe">
          29 96 1232 rmoveto
          224 hlineto
          48 60 36 94 76 vvcurveto
          103 -59 60 -138 -137 -59 -47 -76 -66 42 -45 102 -11 vhcurveto
          -9 -43 -18 -44 -32 -61 rrcurveto
          1 -1232 rmoveto
          180 callsubr
          endchar
        </CharString>
        <CharString name="ncaron">
          29 438 -5 callsubr
          -115 29 callsubr
          -127 -1616 rmoveto
          180 callsubr
          endchar
        </CharString>
        <CharString name="ncaron.sc">
          198 514 1300 rmoveto
          304 hlineto
          225 310 158 callsubr
          -178 -1610 rmoveto
          11 callgsubr
          endchar
        </CharString>
        <CharString name="nine">
          75 557 1500 rmoveto
          -310 -203 -177 -298 -312 205 -135 249 98 98 26 48 71 hvcurveto
          -269 -10 -122 -118 64 callgsubr
          448 268 254 550 513 -231 203 -335 hvcurveto
          -182 -463 rmoveto
          134 77 60 102 120 81 -67 -260 10 vhcurveto
          -42 -58 -69 -18 -67 hhcurveto
          -116 -80 58 135 hvcurveto
          endchar
        </CharString>
        <CharString name="nine.dnom">
          -295 286 -150 119 callsubr
        </CharString>
        <CharString name="nine.numr">
          -295 286 602 119 callsubr
        </CharString>
        <CharString name="nine.osf">
          73 413 -420 rmoveto
          448 268 254 558 522 -231 203 -335 -310 -203 -177 -303 -317 205 -135 249 98 98 26 48 71 hvcurveto
          -275 -10 -122 -119 64 callgsubr
          -32 1069 rmoveto
          140 77 59 102 121 81 -68 -269 9 vhcurveto
          -42 -58 -69 -18 -67 hhcurveto
          -116 -80 58 140 hvcurveto
          endchar
        </CharString>
        <CharString name="nine.tf">
          96 420 -20 rmoveto
          442 269 254 550 513 -231 203 -332 -305 -203 -177 -298 -312 205 -135 245 97 95 26 48 71 hvcurveto
          -269 -11 -120 -118 59 callgsubr
          1057 rmoveto
          134 76 60 100 118 79 -67 -260 10 vhcurveto
          -42 -57 -68 -18 -65 hhcurveto
          -114 -79 58 135 hvcurveto
          endchar
        </CharString>
        <CharString name="nine.tosf">
          96 420 -420 rmoveto
          442 269 254 558 522 -231 203 -332 -305 -203 -177 -303 -317 205 -135 245 97 95 26 48 71 hvcurveto
          -275 -11 -120 -119 59 callgsubr
          1069 rmoveto
          140 76 59 100 119 79 -68 -269 9 vhcurveto
          -42 -57 -68 -18 -65 hhcurveto
          -114 -79 58 140 hvcurveto
          endchar
        </CharString>
        <CharString name="notequal">
          -64 96 394 rmoveto
          101 136 callsubr
          15 callgsubr
        </CharString>
        <CharString name="notequal.osf">
          -64 96 194 rmoveto
          101 136 callsubr
          15 callgsubr
        </CharString>
        <CharString name="notequal.tf">
          96 177 394 rmoveto
          100 136 callsubr
          14 callgsubr
        </CharString>
        <CharString name="notequal.tosf">
          96 177 194 rmoveto
          100 136 callsubr
          14 callgsubr
        </CharString>
        <CharString name="ntilde">
          29 744 -6 callsubr
          54 115 callsubr
          -76 86 callsubr
          -647 -1266 rmoveto
          180 callsubr
          endchar
        </CharString>
        <CharString name="ntilde.sc">
          198 837 1311 rmoveto
          92 -31 callsubr
          -62 -56 -24 -83 -117 -30 callsubr
          11 callsubr
          -726 -1311 rmoveto
          11 callgsubr
          endchar
        </CharString>
        <CharString name="numbersign">
          96 215 callsubr
        </CharString>
        <CharString name="numbersign.tf">
          96 215 callsubr
        </CharString>
        <CharString name="o">
          103 callsubr
          -104 callsubr
          -106 callsubr
          -99 callsubr
        </CharString>
        <CharString name="o.sc">
          -97 callgsubr
          -103 callsubr
          -100 callsubr
        </CharString>
        <CharString name="oacute">
          7 411 -41 callgsubr
          -54 -60 callsubr
          -104 callsubr
          -106 callsubr
          -99 callsubr
        </CharString>
        <CharString name="oacute.sc">
          199 505 -97 callsubr
          -74 callsubr
          -8 -29 callsubr
          -103 callsubr
          -100 callsubr
        </CharString>
        <CharString name="obreve">
          7 571 128 callsubr
          -1257 vmoveto
          324 194 184 383 -104 callsubr
          -106 callsubr
          -99 callsubr
        </CharString>
        <CharString name="obreve.sc">
          199 667 1302 -34 callsubr
          80 callsubr
          -1318 vmoveto
          54 callsubr
          -103 callsubr
          -100 callsubr
        </CharString>
        <CharString name="ocircumflex">
          7 210 -81 callsubr
          102 callsubr
          148 -60 callsubr
          -104 callsubr
          -106 callsubr
          -99 callsubr
        </CharString>
        <CharString name="ocircumflex.sc">
          199 289 -58 callsubr
          -67 callsubr
          152 -29 callsubr
          -103 callsubr
          -100 callsubr
        </CharString>
        <CharString name="odieresis">
          7 814 27 callsubr
          -65 callsubr
          -75 callsubr
          -45 callsubr
          -65 callsubr
          243 -1258 -64 callsubr
          -104 callsubr
          -106 callsubr
          -99 callsubr
        </CharString>
        <CharString name="odieresis.sc">
          199 920 1296 rmoveto
          -71 callsubr
          -88 callsubr
          -63 callsubr
          253 -1312 -68 callsubr
          -103 callsubr
          -100 callsubr
        </CharString>
        <CharString name="oe">
          588 553 -21 rmoveto
          147 112 47 88 77 hvcurveto
          -92 87 137 -43 201 hhcurveto
          99 96 10 25 113 hvcurveto
          275 vlineto
          -20 -89 -91 39 callgsubr
          -146 -112 -58 -101 -74 vhcurveto
          102 -77 -117 57 -160 hhcurveto
          -311 -188 -185 -387 -380 193 -184 306 hvcurveto
          666 908 rmoveto
          83 41 -51 -184 3 hvcurveto
          -259 hlineto
          184 3 44 51 85 hhcurveto
          -648 -640 rmoveto
          -6 callgsubr
          97 56 -59 -245 -239 -54 -57 -99 hvcurveto
          endchar
        </CharString>
        <CharString name="oe.sc">
          624 777 -9 rmoveto
          80 104 9 83 hhcurveto
          650 272 -530 196 432 272 -432 178 521 272 -641 hlineto
          -83 -92 9 -83 hhcurveto
          -457 -265 -189 -416 -413 236 -190 477 hvcurveto
          -65 279 rmoveto
          -179 -98 81 243 244 99 81 179 25 32 -1 -1 37 hvcurveto
          -645 vlineto
          -1 -38 -31 -1 -26 hhcurveto
          endchar
        </CharString>
        <CharString name="ogonek">
          24 355 247 callsubr
        </CharString>
        <CharString name="ograve">
          7 411 -101 callsubr
          -56 callsubr
          425 -60 callsubr
          -104 callsubr
          -106 callsubr
          -99 callsubr
        </CharString>
        <CharString name="ograve.sc">
          199 506 -97 callsubr
          60 callsubr
          -29 callsubr
          -103 callsubr
          -100 callsubr
        </CharString>
        <CharString name="ohorn">
          103 callsubr
          67 callsubr
        </CharString>
        <CharString name="ohorn.sc">
          -97 callgsubr
          68 callsubr
        </CharString>
        <CharString name="ohungarumlaut">
          7 646 1226 rmoveto
          269 hlineto
          158 390 rlineto
          -286 hlineto
          -560 -46 callgsubr
          203 -60 callsubr
          -104 callsubr
          -106 callsubr
          -99 callsubr
        </CharString>
        <CharString name="ohungarumlaut.sc">
          199 742 1300 105 callsubr
          -547 -310 rmoveto
          270 hlineto
          -27 callsubr
          217 -29 callsubr
          -103 callsubr
          -100 callsubr
        </CharString>
        <CharString name="omacron">
          7 214 -106 callgsubr
          357 -1551 -64 callsubr
          -104 callsubr
          -106 callsubr
          -99 callsubr
        </CharString>
        <CharString name="omacron.sc">
          199 293 26 callsubr
          374 -1583 -68 callsubr
          -103 callsubr
          -100 callsubr
        </CharString>
        <CharString name="one">
          -351 299 hmoveto
          366 1486 -230 hlineto
          -416 -275 0 -340 280 185 rlineto
          endchar
        </CharString>
        <CharString name="one.dnom">
          -295 127 -136 186 callsubr
          endchar
        </CharString>
        <CharString name="one.numr">
          -295 40 callsubr
          endchar
        </CharString>
        <CharString name="one.osf">
          -374 288 hmoveto
          366 1103 -230 hlineto
          -416 -250 0 -334 280 169 rlineto
          endchar
        </CharString>
        <CharString name="one.tf">
          96 196 hmoveto
          937 310 -279 1176 -230 hlineto
          -421 -277 0 -339 285 187 rlineto
          -747 -292 vlineto
          endchar
        </CharString>
        <CharString name="one.tosf">
          96 195 hmoveto
          939 293 -281 810 -230 hlineto
          -421 -222 0 -314 285 151 rlineto
          -425 -292 vlineto
          endchar
        </CharString>
        <CharString name="oneeighth">
          909 40 callsubr
          -89 callgsubr
          121 callsubr
        </CharString>
        <CharString name="onehalf">
          909 40 callsubr
          -89 callgsubr
          27 -1752 rmoveto
          683 233 -307 hlineto
          129 161 rlineto
          98 120 38 96 99 vvcurveto
          215 -145 90 -256 -88 -100 -14 -22 -65 vhcurveto
          -225 vlineto
          22 57 81 14 70 hhcurveto
          123 42 -36 -70 -56 -31 -64 -77 -97 hvcurveto
          -252 -316 rlineto
          endchar
        </CharString>
        <CharString name="onequarter">
          909 40 callsubr
          -89 callgsubr
          -3 callgsubr
        </CharString>
        <CharString name="ordfeminine">
          -244 302 593 rmoveto
          88 80 28 76 44 hvcurveto
          15 hlineto
          24 -87 rlineto
          274 501 hlineto
          288 -131 102 -303 -95 -111 -13 -23 -91 vhcurveto
          -247 vlineto
          20 73 83 12 72 hhcurveto
          140 33 -34 -69 hvcurveto
          -2 vlineto
          -99 -6 rlineto
          -269 -13 -107 -93 -179 vvcurveto
          -152 105 -109 175 vhcurveto
          44 305 rmoveto
          50 30 25 69 4 vhcurveto
          52 3 rlineto
          -141 vlineto
          -15 -19 -27 -6 -20 hhcurveto
          -53 -32 25 55 hvcurveto
          endchar
        </CharString>
        <CharString name="ordmasculine">
          -184 476 593 rmoveto
          285 160 166 287 286 -160 46 callgsubr
          240 vmoveto
          -66 -46 38 175 176 46 38 66 67 45 -38 -176 -175 -45 -38 -67 hvcurveto
          endchar
        </CharString>
        <CharString name="oslash">
          7 289 -18 208 callsubr
        </CharString>
        <CharString name="oslash.sc">
          199 311 -10 210 callsubr
        </CharString>
        <CharString name="oslashacute">
          7 409 -101 callsubr
          -76 callsubr
          -335 -1634 208 callsubr
        </CharString>
        <CharString name="oslashacute.sc">
          199 505 -97 callsubr
          -74 callsubr
          -364 -1620 210 callsubr
        </CharString>
        <CharString name="otilde">
          7 729 -6 callsubr
          54 115 callsubr
          -76 86 callsubr
          -158 106 callsubr
          -104 callsubr
          -106 callsubr
          -99 callsubr
        </CharString>
        <CharString name="otilde.sc">
          199 838 1311 -77 callsubr
          -46 callsubr
          -171 107 callsubr
          -103 callsubr
          -100 callsubr
        </CharString>
        <CharString name="p">
          31 callgsubr
          386 -198 161 -223 -121 -87 -54 -83 -52 hvcurveto
          -15 hlineto
          -23 119 rlineto
          -303 hlineto
          445 -845 rmoveto
          -26 -35 3 5 -25 hvcurveto
          513 vlineto
          30 32 48 16 46 hhcurveto
          104 69 -56 -224 -216 -72 -71 -141 hvcurveto
          endchar
        </CharString>
        <CharString name="p.sc">
          20 111 hmoveto
          364 312 hlineto
          -1 25 27 0 31 hhcurveto
          345 194 153 293 312 -195 138 -386 -148 -134 -17 -25 -123 hvcurveto
          451 -597 rmoveto
          -32 -27 2 3 -28 hvcurveto
          370 vlineto
          3 21 27 2 29 hhcurveto
          132 61 -60 -132 -136 -60 -52 -123 hvcurveto
          endchar
        </CharString>
        <CharString name="paragraph">
          136 538 hmoveto
          251 1480 hlineto
          12 -76 -96 7 -90 hhcurveto
          -326 -141 -167 -378 -358 139 -186 266 28 19 0 1 26 hvcurveto
          373 -411 rmoveto
          251 1480 -251 hlineto
          endchar
        </CharString>
        <CharString name="parenleft">
          -438 395 -440 rmoveto
          367 hlineto
          -209 298 -94 337 393 vvcurveto
          393 94 337 209 298 vhcurveto
          -367 hlineto
          -216 -279 -91 -349 -400 vvcurveto
          -400 91 -349 216 -279 vhcurveto
          endchar
        </CharString>
        <CharString name="parenleft.sc">
          -438 319 -240 rmoveto
          340 hlineto
          -136 250 -64 281 309 vvcurveto
          328 70 292 148 260 vhcurveto
          -340 hlineto
          -185 -249 -64 -302 -329 vvcurveto
          -312 64 -288 167 -240 vhcurveto
          endchar
        </CharString>
        <CharString name="parenright">
          -438 -65 -440 rmoveto
          366 hlineto
          217 279 91 349 400 vvcurveto
          400 -91 349 -217 279 vhcurveto
          -366 hlineto
          209 -298 93 -337 -393 vvcurveto
          -393 -93 -337 -209 -298 vhcurveto
          endchar
        </CharString>
        <CharString name="parenright.sc">
          -438 378 -240 rmoveto
          167 240 64 288 312 vvcurveto
          329 -64 302 -185 249 vhcurveto
          -341 hlineto
          149 -260 69 -292 -328 vvcurveto
          -309 -64 -281 -135 -250 vhcurveto
          endchar
        </CharString>
        <CharString name="partialdiff">
          75 557 212 callsubr
        </CharString>
        <CharString name="partialdiff.tf">
          96 588 212 callsubr
        </CharString>
        <CharString name="percent">
          927 227 callsubr
          1122 -811 rmoveto
          241 162 -62 callgsubr
          225 vmoveto
          44 callgsubr
        </CharString>
        <CharString name="percent.tf">
          96 366 840 rmoveto
          205 114 143 187 186 -114 144 -205 -205 -115 -144 -186 -187 115 -143 205 hvcurveto
          -283 -715 rmoveto
          1065 977 0 253 -1065 -977 rlineto
          283 638 rmoveto
          -69 -41 54 100 99 41 54 69 69 39 -54 -100 -99 -39 -54 -69 hvcurveto
          500 -1036 rmoveto
          205 115 144 186 187 -115 143 -205 -205 -115 -143 -187 -186 115 -144 205 hvcurveto
          177 vmoveto
          -69 -40 54 100 99 40 54 69 69 40 -54 -100 -99 -40 -54 -69 hvcurveto
          endchar
        </CharString>
        <CharString name="period">
          -580 277 -19 rmoveto
          -32 callsubr
          88 -141 -140 -90 -85 -15 callgsubr
        </CharString>
        <CharString name="period.tf">
          -519 308 -19 rmoveto
          137 93 88 -23 callgsubr
          -85 -16 callgsubr
        </CharString>
        <CharString name="periodcentered">
          -580 277 339 rmoveto
          -32 callsubr
          -33 callgsubr
        </CharString>
        <CharString name="periodcentered.CAT">
          -608 264 526 rmoveto
          23 callgsubr
          endchar
        </CharString>
        <CharString name="periodcentered.tf">
          -519 308 339 193 callsubr
        </CharString>
        <CharString name="perthousand">
          1800 227 callsubr
          1996 -811 rmoveto
          240 163 151 315 316 -163 150 -240 71 callgsubr
          -874 hmoveto
          241 162 -62 callgsubr
          874 225 rmoveto
          -70 -50 55 187 186 50 54 70 69 50 -54 -187 -186 -50 -55 -69 hvcurveto
          -874 hmoveto
          44 callgsubr
        </CharString>
        <CharString name="perthousand.tf">
          96 391 878 rmoveto
          209 137 123 188 188 -137 123 -209 -208 -137 -123 -188 -188 137 -123 208 hvcurveto
          175 vmoveto
          -75 -42 53 83 84 42 54 75 75 41 -54 -84 -83 -41 -53 -75 hvcurveto
          -314 -449 rmoveto
          1077 188 0 175 -1077 -189 rlineto
          297 -798 rmoveto
          107 81 34 57 53 hvcurveto
          -57 54 81 -34 104 hhcurveto
          195 137 121 190 190 -137 121 -195 -104 -81 -34 -57 -54 hvcurveto
          57 -53 -81 34 -107 hhcurveto
          -194 -137 -121 -190 -190 137 -121 194 hvcurveto
          12 175 rmoveto
          -73 -42 51 85 86 42 51 73 72 41 -51 -86 -85 -41 -51 -72 hvcurveto
          457 hmoveto
          -73 -42 51 85 86 42 51 73 73 40 -51 -86 -85 -40 -51 -73 hvcurveto
          endchar
        </CharString>
        <CharString name="peseta">
          1720 109 hmoveto
          366 412 hlineto
          40 31 -2 42 hhcurveto
          347 210 139 268 50 hvcurveto
          132 -409 58 callgsubr
          360 243 280 -243 383 -293 vlineto
          -66 -383 rlineto
          -132 hlineto
          277 -52 -214 125 -375 hhcurveto
          -161 -146 -19 -28 -138 hvcurveto
          483 -760 rmoveto
          -47 -31 3 4 -39 hvcurveto
          508 vlineto
          7 36 32 2 46 hhcurveto
          179 85 -78 -187 -187 -85 -72 -176 hvcurveto
          1733 -713 rmoveto
          317 82 callsubr
          -21 17 35 vvcurveto
          44 38 42 171 85 83 -8 -18 78 vhcurveto
          271 vlineto
          16 -77 -93 9 -93 hhcurveto
          -357 -164 88 callgsubr
          49 -11 20 -18 -40 vvcurveto
          -50 -39 -32 -133 -100 -114 14 26 -96 vhcurveto
          -271 vlineto
          -26 100 113 -13 101 hhcurveto
          endchar
        </CharString>
        <CharString name="peseta.tf">
          96 52 360 rmoveto
          255 407 hlineto
          -1 27 20 -2 34 hhcurveto
          281 149 139 228 242 -149 126 -308 -108 -102 -11 -22 -99 hvcurveto
          337 -503 rmoveto
          -34 -22 2 3 -26 hvcurveto
          324 vlineto
          6 27 22 2 34 hhcurveto
          122 61 -57 -114 -114 -61 -52 -123 hvcurveto
          -29 -530 rmoveto
          77 -258 hlineto
          -123 71 -72 154 40 39 6 8 32 vhcurveto
          166 vlineto
          -5 -24 -18 0 -17 hhcurveto
          -37 -21 24 41 hvcurveto
          213 98 163 -98 134 -200 vlineto
          -19 -134 rlineto
          -77 hlineto
          606 -617 rmoveto
          155 90 79 133 109 -52 48 -94 32 hvcurveto
          -70 26 -10 11 22 vvcurveto
          23 24 19 52 39 37 -4 -10 39 vhcurveto
          163 vlineto
          9 -38 -45 5 -47 hhcurveto
          -168 -89 -81 -127 -108 54 -52 91 -27 hvcurveto
          72 -24 13 -16 -25 vvcurveto
          -23 -18 -20 -41 -47 -55 8 15 -44 vhcurveto
          -164 vlineto
          -14 47 51 -7 54 hhcurveto
          endchar
        </CharString>
        <CharString name="pi">
          251 168 hmoveto
          359 817 212 -412 hlineto
          -299 148 -126 264 68 78 10 13 54 vhcurveto
          287 vlineto
          -6 -40 -31 -4 -30 hhcurveto
          -112 -39 41 134 hvcurveto
          362 158 280 -1247 -280 158 vlineto
          endchar
        </CharString>
        <CharString name="pi.tf">
          96 136 hmoveto
          342 817 189 -468 hlineto
          -243 128 -126 227 82 73 10 13 54 vhcurveto
          287 vlineto
          -6 -40 -31 -4 -30 hhcurveto
          -83 -38 41 99 hvcurveto
          397 137 280 -1146 -280 136 vlineto
          endchar
        </CharString>
        <CharString name="plus">
          -64 391 316 rmoveto
          289 -98 callgsubr
          -289 -99 callgsubr
        </CharString>
        <CharString name="plus.osf">
          -64 391 116 rmoveto
          289 -98 callgsubr
          -289 -99 callgsubr
        </CharString>
        <CharString name="plus.tf">
          96 472 316 rmoveto
          288 -98 callgsubr
          -288 -99 callgsubr
        </CharString>
        <CharString name="plus.tosf">
          96 472 116 rmoveto
          288 -98 callgsubr
          -288 -99 callgsubr
        </CharString>
        <CharString name="plusminus">
          -64 391 382 rmoveto
          289 293 295 276 -295 293 -289 111 callgsubr
          879 277 -879 hlineto
          endchar
        </CharString>
        <CharString name="plusminus.osf">
          -64 391 325 rmoveto
          289 248 295 257 -295 248 -289 112 callgsubr
          879 257 -879 hlineto
          endchar
        </CharString>
        <CharString name="plusminus.tf">
          96 472 382 rmoveto
          288 293 295 276 -295 293 -288 111 callgsubr
          878 277 -878 hlineto
          endchar
        </CharString>
        <CharString name="plusminus.tosf">
          96 472 325 rmoveto
          288 248 295 257 -295 248 -288 112 callgsubr
          878 257 -878 hlineto
          endchar
        </CharString>
        <CharString name="product">
          241 109 -440 rmoveto
          366 1592 426 -1592 365 1920 -1157 hlineto
          endchar
        </CharString>
        <CharString name="product.tf">
          96 89 -440 rmoveto
          366 1592 320 -1592 366 1920 -1052 hlineto
          endchar
        </CharString>
        <CharString name="q">
          37 716 -440 rmoveto
          359 1491 hlineto
          42 -119 -158 22 -139 hhcurveto
          -415 -190 -207 -381 -381 183 -166 212 111 86 46 79 53 hvcurveto
          17 hlineto
          -118 172 rmoveto
          -112 -69 56 224 216 77 70 134 31 32 -4 -4 25 hvcurveto
          -520 vlineto
          -25 -32 -44 -13 -42 hhcurveto
          endchar
        </CharString>
        <CharString name="q.sc">
          199 1186 -300 rmoveto
          65 272 -113 16 -114 22 -110 29 rlinecurve
          238 66 118 200 289 vvcurveto
          414 -242 198 -361 -360 -243 -198 -418 -432 260 -311 862 -147 vhcurveto
          -519 562 rmoveto
          21 callgsubr
        </CharString>
        <CharString name="question">
          -178 311 500 rmoveto
          219 hlineto
          27 184 rlineto
          225 68 134 135 212 vvcurveto
          257 -180 144 -358 -121 -144 -21 -32 -92 vhcurveto
          -282 vlineto
          33 91 116 19 104 hhcurveto
          166 69 -51 -103 -98 -67 -65 -251 -48 hvcurveto
          171 -871 19 callgsubr
        </CharString>
        <CharString name="questiondown">
          -178 537 1116 rmoveto
          -138 -93 -86 -126 -127 90 -86 141 141 89 83 130 129 -93 83 -137 hvcurveto
          110 -519 rmoveto
          -220 hlineto
          -27 -184 rlineto
          -225 -67 -134 -136 -211 vvcurveto
          -256 181 -143 357 121 145 21 32 91 vhcurveto
          281 vlineto
          -32 -91 -116 -20 -103 hhcurveto
          -167 -69 52 102 97 67 65 251 48 hvcurveto
          endchar
        </CharString>
        <CharString name="quotedbl">
          -223 162 callsubr
          89 callgsubr
        </CharString>
        <CharString name="quotedbl.tf">
          -519 94 826 rmoveto
          140 hlineto
          43 790 rlineto
          -227 hlineto
          330 -790 rmoveto
          140 hlineto
          43 790 rlineto
          -226 hlineto
          endchar
        </CharString>
        <CharString name="quotedblbase">
          -67 131 -352 rmoveto
          -35 callsubr
          190 -82 97 110 callsubr
          -123 77 -80 114 -15 vhcurveto
          -11 -107 -38 -104 -58 -125 rrcurveto
          513 hmoveto
          -35 callsubr
          154 callsubr
        </CharString>
        <CharString name="quotedblleft">
          -67 296 842 rmoveto
          237 callsubr
          513 hmoveto
          237 callsubr
          endchar
        </CharString>
        <CharString name="quotedblright">
          -67 131 860 rmoveto
          -35 callsubr
          191 -82 96 110 callsubr
          -122 77 -81 114 -15 vhcurveto
          -11 -107 -38 -104 -58 -125 rrcurveto
          513 hmoveto
          -35 callsubr
          191 -82 96 110 callsubr
          -122 77 -81 -38 callgsubr
        </CharString>
        <CharString name="quoteleft">
          -580 296 842 rmoveto
          237 callsubr
          endchar
        </CharString>
        <CharString name="quoteright">
          -580 131 860 rmoveto
          -35 callsubr
          191 -82 96 110 callsubr
          -122 77 -81 -38 callgsubr
        </CharString>
        <CharString name="quotesinglbase">
          -580 131 -352 rmoveto
          -35 callsubr
          154 callsubr
        </CharString>
        <CharString name="quotesingle">
          -670 162 callsubr
          endchar
        </CharString>
        <CharString name="quotesingle.tf">
          -519 197 826 rmoveto
          222 hlineto
          67 790 rlineto
          -357 hlineto
          endchar
        </CharString>
        <CharString name="r">
          126 callsubr
          endchar
        </CharString>
        <CharString name="r.sc">
          62 111 hmoveto
          65 callsubr
        </CharString>
        <CharString name="racute">
          -340 279 -51 callgsubr
          -396 -1616 rmoveto
          129 callsubr
        </CharString>
        <CharString name="racute.sc">
          62 405 -97 callsubr
          -85 callsubr
          -464 -1610 rmoveto
          65 callsubr
        </CharString>
        <CharString name="radical">
          258 527 hmoveto
          467 hlineto
          407 1480 -330 0 -306 -1155 -205 772 rlineto
          -504 -276 235 hlineto
          endchar
        </CharString>
        <CharString name="radical.tf">
          96 413 hmoveto
          467 hlineto
          327 1480 -330 0 -224 -1105 -127 722 rlineto
          -504 -276 235 hlineto
          endchar
        </CharString>
        <CharString name="rcaron">
          -340 290 1226 rmoveto
          298 hlineto
          213 390 -247 0 -115 29 callsubr
          20 -1616 rmoveto
          129 callsubr
        </CharString>
        <CharString name="rcaron.sc">
          62 416 1 callsubr
          225 310 158 callsubr
          -79 -1610 rmoveto
          65 callsubr
        </CharString>
        <CharString name="registered">
          259 697 268 rmoveto
          362 248 250 364 364 -248 252 -362 -362 -248 -252 -364 -364 248 -250 362 hvcurveto
          144 vmoveto
          -276 -180 185 285 287 180 185 276 276 180 -185 -287 -285 -180 -185 -276 hvcurveto
          -220 188 rmoveto
          152 hlineto
          5 191 47 0 132 -191 167 0 -146 213 rlineto
          78 29 37 58 91 vvcurveto
          135 -85 66 -176 vhcurveto
          -211 hlineto
          157 -278 rmoveto
          156 78 vlineto
          57 32 -27 -52 -53 -30 -24 -59 hvcurveto
          endchar
        </CharString>
        <CharString name="ring">
          24 -14 callgsubr
          -62 callsubr
          194 callsubr
        </CharString>
        <CharString name="s">
          -215 408 -21 -17 callsubr
        </CharString>
        <CharString name="s.sc">
          -138 429 -16 118 callsubr
          endchar
        </CharString>
        <CharString name="sacute">
          -215 300 -101 callsubr
          -76 callsubr
          -107 -1637 -17 callsubr
        </CharString>
        <CharString name="sacute.sc">
          -138 329 -97 callsubr
          -85 callsubr
          -70 -1626 118 callsubr
          endchar
        </CharString>
        <CharString name="scaron">
          -215 312 -5 callsubr
          174 callsubr
          309 -1637 -17 callsubr
        </CharString>
        <CharString name="scaron.sc">
          -138 339 1300 rmoveto
          303 hlineto
          226 310 158 callsubr
          315 -1626 118 callsubr
          endchar
        </CharString>
        <CharString name="scedilla">
          -215 451 -452 rmoveto
          184 83 74 116 95 -57 63 -103 20 hvcurveto
          76 vlineto
          208 39 121 126 185 vvcurveto
          193 -98 88 -178 38 vhcurveto
          -169 34 rlineto
          -50 12 228 callsubr
          94 -31 105 -15 111 -2 rrcurveto
          -156 44 vlineto
          64 35 -22 -48 -49 -32 -18 -64 -43 -62 9 20 -53 hvcurveto
          -138 vlineto
          -18 52 58 -11 66 hhcurveto
          endchar
        </CharString>
        <CharString name="scedilla.sc">
          -138 449 -452 rmoveto
          200 85 74 117 99 -62 62 -119 18 hvcurveto
          74 vlineto
          270 33 138 147 201 vvcurveto
          194 -111 107 -242 56 vhcurveto
          -83 18 rlineto
          -114 28 -17 22 42 vvcurveto
          51 40 36 189 89 96 -12 -17 80 vhcurveto
          280 vlineto
          15 -78 -105 13 -103 hhcurveto
          -397 -168 -161 -228 -184 107 -116 224 -50 hvcurveto
          83 -18 rlineto
          128 -30 25 -26 -44 vvcurveto
          -52 -36 -33 -143 -106 -133 18 30 -109 vhcurveto
          -280 vlineto
          81 -25 113 -18 111 -4 rrcurveto
          -162 45 vlineto
          77 41 -22 -48 -49 -39 -18 -76 -51 -70 9 20 -57 hvcurveto
          -138 vlineto
          -18 56 66 -11 75 hhcurveto
          endchar
        </CharString>
        <CharString name="scircumflex">
          -215 99 -81 callsubr
          76 callsubr
          96 -1637 -17 callsubr
        </CharString>
        <CharString name="scircumflex.sc">
          -138 114 70 callgsubr
          -75 callgsubr
          90 -1626 118 callsubr
          endchar
        </CharString>
        <CharString name="second">
          -223 162 callsubr
          89 callgsubr
        </CharString>
        <CharString name="section">
          -85 441 -21 rmoveto
          316 176 137 218 74 -21 58 -40 44 hvcurveto
          65 58 41 75 97 vvcurveto
          186 -97 88 -160 35 vhcurveto
          -213 43 rlineto
          -48 12 -23 18 36 vvcurveto
          43 40 42 179 79 78 -7 -17 79 vhcurveto
          254 vlineto
          16 -77 -92 9 -94 hhcurveto
          -357 -159 -143 -215 -70 22 -57 42 -45 hvcurveto
          -64 -57 -41 -74 -95 vvcurveto
          1 -183 103 -94 155 -35 208 -45 rcurveline
          49 -11 21 -19 -40 vvcurveto
          -49 -38 -33 -134 -105 -108 13 27 -98 vhcurveto
          -255 vlineto
          -26 100 114 -13 101 hhcurveto
          16 680 rmoveto
          -71 16 -23 32 51 vvcurveto
          38 13 29 27 35 vhcurveto
          192 -41 rlineto
          70 -16 22 -33 -48 vvcurveto
          -36 -13 -27 -40 -38 vhcurveto
          endchar
        </CharString>
        <CharString name="semicolon">
          2 callgsubr
          -146 -1027 rmoveto
          -35 callsubr
          154 callsubr
        </CharString>
        <CharString name="semicolon.tf">
          20 callgsubr
          -147 -1023 rmoveto
          206 hlineto
          102 134 68 183 167 vvcurveto
          190 -82 97 -153 100 callgsubr
          -105 -38 -104 -58 -123 rrcurveto
          endchar
        </CharString>
        <CharString name="seven">
          -153 121 hmoveto
          377 hlineto
          428 1280 rlineto
          200 -916 -310 527 vlineto
          endchar
        </CharString>
        <CharString name="seven.dnom">
          -295 158 -136 152 callsubr
        </CharString>
        <CharString name="seven.numr">
          -295 158 616 152 callsubr
        </CharString>
        <CharString name="seven.osf">
          -190 109 -400 rmoveto
          376 hlineto
          434 1297 rlineto
          200 -915 -309 527 vlineto
          endchar
        </CharString>
        <CharString name="seven.tf">
          96 240 hmoveto
          379 hlineto
          470 1280 rlineto
          200 -994 -310 594 vlineto
          endchar
        </CharString>
        <CharString name="seven.tosf">
          96 241 -400 rmoveto
          378 hlineto
          470 1297 rlineto
          200 -994 -309 595 vlineto
          endchar
        </CharString>
        <CharString name="seveneighths">
          909 158 616 rmoveto
          294 hlineto
          292 850 rlineto
          150 -678 -233 370 vlineto
          53 -1519 21 callsubr
          121 callsubr
        </CharString>
        <CharString name="six">
          75 653 -20 rmoveto
          309 203 -12 callgsubr
          221 callsubr
          68 18 68 hhcurveto
          endchar
        </CharString>
        <CharString name="six.dnom">
          -295 462 -150 120 callsubr
        </CharString>
        <CharString name="six.numr">
          -295 462 602 120 callsubr
        </CharString>
        <CharString name="six.osf">
          73 645 -20 rmoveto
          310 202 -12 callgsubr
          221 callsubr
          69 18 67 hhcurveto
          endchar
        </CharString>
        <CharString name="six.tf">
          96 216 callsubr
        </CharString>
        <CharString name="six.tosf">
          96 216 callsubr
        </CharString>
        <CharString name="slash">
          -358 -240 vmoveto
          350 hlineto
          427 1856 rlineto
          -350 hlineto
          endchar
        </CharString>
        <CharString name="slash.tf">
          96 227 -240 rmoveto
          350 hlineto
          427 1856 rlineto
          -350 hlineto
          endchar
        </CharString>
        <CharString name="space">
          -663 endchar
        </CharString>
        <CharString name="sterling">
          143 63 hmoveto
          1169 301 -635 313 419 272 -419 129 hlineto
          130 71 55 231 93 114 -14 -23 86 vhcurveto
          300 vlineto
          22 -88 -117 15 -118 hhcurveto
          -426 -203 -178 -319 hvcurveto
          -117 -177 -272 177 -313 -177 vlineto
          endchar
        </CharString>
        <CharString name="sterling.tf">
          96 63 hmoveto
          1159 301 -625 313 409 272 -409 129 hlineto
          130 69 55 236 89 108 -14 -23 83 vhcurveto
          300 vlineto
          22 -85 -114 15 -114 hhcurveto
          -431 -198 -177 -315 hvcurveto
          -122 -177 -272 177 -313 -177 vlineto
          endchar
        </CharString>
        <CharString name="summation">
          45 47 -440 rmoveto
          1069 312 -594 hlineto
          428 648 -428 648 rlineto
          594 312 -1069 -203 hlineto
          502 -757 -502 -757 rlineto
          endchar
        </CharString>
        <CharString name="summation.tf">
          96 81 -440 rmoveto
          1069 312 -594 hlineto
          427 648 -427 648 rlineto
          594 312 -1069 -203 hlineto
          501 -757 -501 -757 rlineto
          endchar
        </CharString>
        <CharString name="t">
          97 callsubr
          37 callsubr
          endchar
        </CharString>
        <CharString name="t.sc">
          -84 callgsubr
          endchar
        </CharString>
        <CharString name="tbar">
          -316 59 460 rmoveto
          109 -52 58 callgsubr
          3 208 228 -208 129 255 280 -255 383 -293 vlineto
          -66 -383 rlineto
          -158 -280 158 -129 -109 hlineto
          endchar
        </CharString>
        <CharString name="tbar.sc">
          -36 367 hmoveto
          365 441 225 235 -225 223 358 291 -1081 -291 358 -223 -225 -235 225 hlineto
          endchar
        </CharString>
        <CharString name="tcaron">
          -316 612 1180 rmoveto
          196 hlineto
          46 201 callsubr
          -30 -1200 182 callsubr
          37 callsubr
          endchar
        </CharString>
        <CharString name="tcaron.sc">
          -36 399 1 callsubr
          -80 callsubr
          -57 callsubr
          194 -1610 rmoveto
          101 callgsubr
          endchar
        </CharString>
        <CharString name="thorn">
          31 callgsubr
          381 -184 166 -211 -112 -86 -46 -79 -53 hvcurveto
          -17 626 -359 hlineto
          445 -1364 rmoveto
          -26 -35 3 5 -25 hvcurveto
          517 vlineto
          28 31 46 13 42 hhcurveto
          111 69 -56 -223 -216 -72 -71 -141 hvcurveto
          endchar
        </CharString>
</ttFont>
